<svg width="77" height="22" viewBox="0 0 77 22" fill="none" xmlns="http://www.w3.org/2000/svg">
<path d="M0.476562 20.9087H9.27948C13.9073 20.9087 16.3721 18.5005 16.3721 15.2295C16.3721 12.1893 14.189 10.3531 11.8449 10.2427V10.042C13.9878 9.56039 15.5673 8.04529 15.5673 5.62713C15.5673 2.54675 13.2735 0.359375 8.72616 0.359375H0.476562V20.9087ZM4.83275 17.3567V11.8983H8.4847C10.5773 11.8983 11.8751 13.1023 11.8751 14.7981C11.8751 16.3433 10.8187 17.3567 8.3841 17.3567H4.83275ZM4.83275 8.95837V3.87121H8.14265C10.0743 3.87121 11.1709 4.86456 11.1709 6.34957C11.1709 7.97505 9.84287 8.95837 8.06216 8.95837H4.83275Z" fill="#8CB7F5"/>
<path d="M18.6032 20.9087H22.8889V12.1893C22.8889 10.2929 24.2773 8.98847 26.1686 8.98847C26.7622 8.98847 27.5771 9.0888 27.9795 9.21924V5.42646C27.5972 5.33615 27.064 5.27595 26.6314 5.27595C24.901 5.27595 23.4825 6.27933 22.9191 8.18576H22.7581V5.49669H18.6032V20.9087Z" fill="#8CB7F5"/>
<path d="M33.6362 21.1996C35.9199 21.1996 37.3988 20.2063 38.1533 18.7714H38.274V20.9087H42.3385V10.5136C42.3385 6.84123 39.2197 5.29602 35.779 5.29602C32.0768 5.29602 29.6421 7.06197 29.0486 9.87144L33.0124 10.1925C33.3042 9.16908 34.2197 8.41654 35.7589 8.41654C37.2177 8.41654 38.0527 9.14901 38.0527 10.4133V10.4735C38.0527 11.4668 36.9964 11.5973 34.3102 11.8581C31.2518 12.1391 28.5053 13.1625 28.5053 16.6041C28.5053 19.6544 30.6884 21.1996 33.6362 21.1996ZM34.8635 18.2497C33.5456 18.2497 32.5999 17.6376 32.5999 16.4637C32.5999 15.2596 33.5959 14.6676 35.105 14.4569C36.0406 14.3265 37.5698 14.1057 38.0829 13.7646V15.4001C38.0829 17.0155 36.7448 18.2497 34.8635 18.2497Z" fill="#8CB7F5"/>
<path d="M49.4262 11.9986C49.4363 10.0119 50.6234 8.84799 52.3538 8.84799C54.0741 8.84799 55.1104 9.97178 55.1003 11.8581V20.9087H59.3861V11.0956C59.3861 7.50346 57.2734 5.29602 54.054 5.29602C51.7602 5.29602 50.1002 6.41981 49.4061 8.21586H49.225V5.49669H45.1404V20.9087H49.4262V11.9986Z" fill="#8CB7F5"/>
<path d="M67.9351 21.1595C70.4301 21.1595 71.7279 19.7247 72.3215 18.4403H72.5025V20.9087H76.728V0.359375H72.4522V8.08542H72.3215C71.748 6.83119 70.5106 5.29602 67.925 5.29602C64.5346 5.29602 61.6674 7.92488 61.6674 13.2227C61.6674 18.3801 64.4139 21.1595 67.9351 21.1595ZM69.2932 17.758C67.1906 17.758 66.0437 15.8917 66.0437 13.2027C66.0437 10.5337 67.1705 8.69748 69.2932 8.69748C71.3758 8.69748 72.5428 10.4534 72.5428 13.2027C72.5428 15.9519 71.3556 17.758 69.2932 17.758Z" fill="#8CB7F5"/>
</svg>
