<svg width="71" height="28" viewBox="0 0 71 28" fill="none" xmlns="http://www.w3.org/2000/svg">
<path d="M0.117188 27.4797H8.25341C12.5307 27.4797 14.8089 24.3491 14.8089 20.0968C14.8089 16.1445 12.7911 13.7574 10.6245 13.6139V13.3531C12.6051 12.727 14.065 10.7573 14.065 7.61371C14.065 3.60921 11.9449 0.765625 7.74199 0.765625H0.117188V27.4797ZM4.14345 22.8621V15.7662H7.51882C9.45292 15.7662 10.6524 17.3315 10.6524 19.5359C10.6524 21.5447 9.67608 22.8621 7.42584 22.8621H4.14345ZM4.14345 11.9443V5.33102H7.20267C8.98799 5.33102 10.0015 6.62237 10.0015 8.55288C10.0015 10.666 8.77412 11.9443 7.12828 11.9443H4.14345Z" fill="#8CB7F5"/>
<path d="M16.8709 27.4797H20.8321V16.1445C20.8321 13.6792 22.1153 11.9834 23.8634 11.9834C24.4121 11.9834 25.1652 12.1139 25.5372 12.2835V7.35283C25.1838 7.23544 24.691 7.15717 24.2912 7.15717C22.6918 7.15717 21.3807 8.46157 20.86 10.9399H20.7112V7.44414H16.8709V27.4797Z" fill="#8CB7F5"/>
<path d="M30.7654 27.858C32.8762 27.858 34.243 26.5666 34.9404 24.7013H35.052V27.4797H38.8086V13.9661C38.8086 9.19203 35.9261 7.18326 32.746 7.18326C29.3241 7.18326 27.0739 9.479 26.5253 13.1313L30.1889 13.5487C30.4585 12.2182 31.3047 11.2399 32.7274 11.2399C34.0757 11.2399 34.8474 12.1921 34.8474 13.8357V13.914C34.8474 15.2053 33.8711 15.3749 31.3884 15.714C28.5616 16.0793 26.0231 17.4097 26.0231 21.8838C26.0231 25.8492 28.0409 27.858 30.7654 27.858ZM31.8998 24.023C30.6817 24.023 29.8076 23.2274 29.8076 21.7012C29.8076 20.1359 30.7282 19.3663 32.123 19.0924C32.9877 18.9228 34.4011 18.6359 34.8753 18.1924V20.3185C34.8753 22.4186 33.6386 24.023 31.8998 24.023Z" fill="#8CB7F5"/>
<path d="M45.3596 15.8966C45.3689 13.3139 46.4661 11.8008 48.0654 11.8008C49.6555 11.8008 50.6132 13.2618 50.6039 15.714V27.4797H54.5651V14.7227C54.5651 10.0529 52.6124 7.18326 49.6369 7.18326C47.5168 7.18326 45.9826 8.64419 45.341 10.9791H45.1736V7.44414H41.3984V27.4797H45.3596V15.8966Z" fill="#8CB7F5"/>
<path d="M62.4667 27.8058C64.7727 27.8058 65.9722 25.9405 66.5208 24.2709H66.6882V27.4797H70.5936V0.765625H66.6417V10.8095H66.5208C65.9908 9.17899 64.8471 7.18326 62.4574 7.18326C59.3237 7.18326 56.6737 10.6008 56.6737 17.488C56.6737 24.1926 59.2122 27.8058 62.4667 27.8058ZM63.722 23.3839C61.7786 23.3839 60.7185 20.9577 60.7185 17.4619C60.7185 13.9922 61.76 11.6052 63.722 11.6052C65.6467 11.6052 66.7254 13.8879 66.7254 17.4619C66.7254 21.036 65.6282 23.3839 63.722 23.3839Z" fill="#8CB7F5"/>
</svg>
