<svg width="71" height="26" viewBox="0 0 71 26" fill="none" xmlns="http://www.w3.org/2000/svg">
<path d="M0.117188 24.9379H8.25341C12.5307 24.9379 14.8089 22.0933 14.8089 18.2294C14.8089 14.6381 12.7911 12.4691 10.6245 12.3387V12.1017C12.6051 11.5328 14.065 9.74305 14.065 6.8866C14.065 3.2479 11.9449 0.664062 7.74199 0.664062H0.117188V24.9379ZM4.14345 20.7421V14.2944H7.51882C9.45292 14.2944 10.6524 15.7167 10.6524 17.7198C10.6524 19.545 9.67608 20.7421 7.42584 20.7421H4.14345ZM4.14345 10.8216V4.81242H7.20267C8.98799 4.81242 10.0015 5.98582 10.0015 7.73998C10.0015 9.66008 8.77412 10.8216 7.12828 10.8216H4.14345Z" fill="#8CB7F5"/>
<path d="M16.8709 24.9379H20.8321V14.6381C20.8321 12.398 22.1153 10.8572 23.8634 10.8572C24.4121 10.8572 25.1652 10.9757 25.5372 11.1298V6.64955C25.1838 6.54288 24.691 6.47177 24.2912 6.47177C22.6918 6.47177 21.3807 7.65701 20.86 9.90898H20.7112V6.73252H16.8709V24.9379Z" fill="#8CB7F5"/>
<path d="M30.7654 25.2816C32.8762 25.2816 34.243 24.1082 34.9404 22.4133H35.052V24.9379H38.8086V12.6588C38.8086 8.32075 35.9261 6.49547 32.746 6.49547C29.3241 6.49547 27.0739 8.5815 26.5253 11.9002L30.1889 12.2795C30.4585 11.0705 31.3047 10.1816 32.7274 10.1816C34.0757 10.1816 34.8474 11.0468 34.8474 12.5402V12.6113C34.8474 13.7847 33.8711 13.9388 31.3884 14.247C28.5616 14.5788 26.0231 15.7878 26.0231 19.8532C26.0231 23.4563 28.0409 25.2816 30.7654 25.2816ZM31.8998 21.797C30.6817 21.797 29.8076 21.074 29.8076 19.6873C29.8076 18.265 30.7282 17.5657 32.123 17.3168C32.9877 17.1627 34.4011 16.9019 34.8753 16.4989V18.4309C34.8753 20.3391 33.6386 21.797 31.8998 21.797Z" fill="#8CB7F5"/>
<path d="M45.3596 14.4129C45.3689 12.0661 46.4661 10.6912 48.0654 10.6912C49.6555 10.6912 50.6132 12.0187 50.6039 14.247V24.9379H54.5651V13.3462C54.5651 9.10301 52.6124 6.49547 49.6369 6.49547C47.5168 6.49547 45.9826 7.82295 45.341 9.94454H45.1736V6.73252H41.3984V24.9379H45.3596V14.4129Z" fill="#8CB7F5"/>
<path d="M62.4667 25.2342C64.7727 25.2342 65.9722 23.5393 66.5208 22.0222H66.6882V24.9379H70.5936V0.664062H66.6417V9.79045H66.5208C65.9908 8.3089 64.8471 6.49547 62.4574 6.49547C59.3237 6.49547 56.6737 9.60082 56.6737 15.8589C56.6737 21.9511 59.2122 25.2342 62.4667 25.2342ZM63.722 21.2162C61.7786 21.2162 60.7185 19.0117 60.7185 15.8352C60.7185 12.6825 61.76 10.5135 63.722 10.5135C65.6467 10.5135 66.7254 12.5876 66.7254 15.8352C66.7254 19.0828 65.6282 21.2162 63.722 21.2162Z" fill="#8CB7F5"/>
</svg>
