<svg width="95" height="40" viewBox="0 0 95 40" fill="none" xmlns="http://www.w3.org/2000/svg">
<path d="M0.5 6C0.5 2.96243 2.96243 0.5 6 0.5H93.7849V39.5H6C2.96243 39.5 0.5 37.0376 0.5 34V6Z" fill="white" stroke="#DEE2E7"/>
<path fill-rule="evenodd" clip-rule="evenodd" d="M49.6446 13.3664C49.1708 12.8779 48.4055 12.8779 47.9317 13.3664L42.3554 19.1168C41.8815 19.6054 41.8815 20.3946 42.3554 20.8832L47.9317 26.6336C48.4055 27.1221 49.1708 27.1221 49.6446 26.6336C50.1185 26.145 50.1185 25.3557 49.6446 24.8671L44.9309 19.9937L49.6446 15.1329C50.1185 14.6443 50.1063 13.8425 49.6446 13.3664Z" fill="#8B96A5"/>
</svg>
