<svg width="95" height="40" viewBox="0 0 95 40" fill="none" xmlns="http://www.w3.org/2000/svg">
<path d="M1.21875 0.5H89.0037C92.0412 0.5 94.5037 2.96243 94.5037 6V34C94.5037 37.0376 92.0412 39.5 89.0037 39.5H1.21875V0.5Z" fill="white" stroke="#DEE2E7"/>
<path fill-rule="evenodd" clip-rule="evenodd" d="M44.0741 13.3683C43.6003 13.8573 43.6003 14.6472 44.0741 15.1361L48.7878 20.0008L44.0741 24.8654C43.6003 25.3544 43.6003 26.1443 44.0741 26.6333C44.5479 27.1222 45.3133 27.1222 45.7871 26.6333L51.3634 20.8784C51.8372 20.3895 51.8372 19.5996 51.3634 19.1106L45.7871 13.3558C45.3254 12.8793 44.5479 12.8793 44.0741 13.3683Z" fill="#1C1C1C"/>
</svg>
