<svg width="184" height="42" viewBox="0 0 184 42" fill="none" xmlns="http://www.w3.org/2000/svg">
<path fill-rule="evenodd" clip-rule="evenodd" d="M18.2788 14.9595L16.9866 14.9607C15.9732 14.9607 15.7767 15.636 15.7767 16.6266V18.8125H18.1939L17.879 22.2371H15.7767V31.0217H13.2565V22.2371H11.1491V18.8125H13.2565V16.2884C13.2565 13.3574 14.5325 11.7624 16.3954 11.7624C17.2878 11.7624 18.0549 11.8551 18.2788 11.8973V14.9595ZM14.7135 2.13281C7.13161 2.13281 0.984375 10.7549 0.984375 21.3921C0.984375 32.028 7.13161 40.6513 14.7135 40.6513C22.2963 40.6513 28.4427 32.028 28.4427 21.3921C28.4427 10.7549 22.2963 2.13281 14.7135 2.13281Z" fill="#BDC4CD"/>
<path fill-rule="evenodd" clip-rule="evenodd" d="M58.6179 17.4644C58.6231 17.6341 58.6265 17.8038 58.6265 17.976C58.6265 23.1964 55.7931 29.2174 50.6121 29.2174C49.0212 29.2174 47.5411 28.5637 46.2943 27.4431C46.5148 27.4792 46.7388 27.4973 46.9661 27.4973C48.2859 27.4973 49.5 26.8665 50.4645 25.8061C49.2315 25.7748 48.1915 24.6324 47.8328 23.0628C48.0053 23.1086 48.1812 23.1326 48.3631 23.1326C48.6197 23.1326 48.8685 23.0845 49.1053 22.9942C47.8165 22.6319 46.846 21.0346 46.846 19.1207C46.846 19.1038 46.846 19.087 46.846 19.0701C47.2253 19.3662 47.6603 19.5444 48.122 19.5649C47.366 18.8559 46.8683 17.6461 46.8683 16.2763C46.8683 15.5517 47.0073 14.8728 47.2502 14.289C48.6394 16.6796 50.7151 18.2528 53.0559 18.4177C53.0078 18.1288 52.983 17.8267 52.983 17.5174C52.983 15.335 54.2443 13.5656 55.7991 13.5656C56.61 13.5656 57.342 14.0459 57.8551 14.8138C58.4969 14.6369 59.1002 14.3083 59.6442 13.8557C59.4339 14.7777 58.9869 15.5517 58.406 16.0416C58.9757 15.9453 59.518 15.7335 60.0234 15.4193C59.6459 16.2113 59.1679 16.9071 58.6179 17.4644ZM53.1589 2.13281C45.5761 2.13281 39.4297 10.7549 39.4297 21.3921C39.4297 32.028 45.5761 40.6513 53.1589 40.6513C60.7416 40.6513 66.888 32.028 66.888 21.3921C66.888 10.7549 60.7416 2.13281 53.1589 2.13281Z" fill="#BDC4CD"/>
<path fill-rule="evenodd" clip-rule="evenodd" d="M98.4609 31.0036H95.6164V24.7588C95.6164 23.2699 95.5976 21.3548 94.138 21.3548C92.6578 21.3548 92.4321 22.9774 92.4321 24.6529V31.0036H89.5902V18.1625H92.3171V19.9187H92.3566C92.7359 18.9088 93.6643 17.8436 95.0484 17.8436C97.9289 17.8436 98.4609 20.5025 98.4609 23.9608V31.0036ZM86.3827 16.4087C85.4689 16.4087 84.7318 15.3711 84.7318 14.094C84.7318 12.8169 85.4689 11.7793 86.3827 11.7793C87.2923 11.7793 88.0311 12.8169 88.0311 14.094C88.0311 15.3711 87.2923 16.4087 86.3827 16.4087ZM87.8054 31.0037H84.9574V18.1625H87.8054V31.0037ZM91.5964 2.13281C84.0136 2.13281 77.8672 10.7549 77.8672 21.3921C77.8672 32.028 84.0136 40.6513 91.5964 40.6513C99.1791 40.6513 105.326 32.028 105.326 21.3921C105.326 10.7549 99.1791 2.13281 91.5964 2.13281Z" fill="#BDC4CD"/>
<path fill-rule="evenodd" clip-rule="evenodd" d="M175.344 22.1191C175.344 23.6779 175.206 25.2367 175.206 25.2367C175.206 25.2367 175.073 26.5632 174.661 27.1482C174.139 27.9149 173.554 27.9186 173.285 27.9631C171.364 28.1581 168.479 28.1641 168.479 28.1641C168.479 28.1641 164.91 28.1184 163.811 27.9715C163.506 27.8909 162.819 27.9149 162.298 27.1482C161.886 26.5632 161.752 25.2367 161.752 25.2367C161.752 25.2367 161.615 23.6779 161.615 22.1191V20.6578C161.615 19.099 161.752 17.5414 161.752 17.5414C161.752 17.5414 161.886 16.2137 162.298 15.6287C162.819 14.862 163.405 14.8584 163.673 14.8138C165.594 14.6188 168.477 14.6188 168.477 14.6188H168.482C168.482 14.6188 171.364 14.6188 173.285 14.8138C173.554 14.8584 174.139 14.862 174.661 15.6287C175.073 16.2137 175.206 17.5414 175.206 17.5414C175.206 17.5414 175.344 19.099 175.344 20.6578V22.1191ZM168.479 2.13281C160.896 2.13281 154.75 10.7549 154.75 21.3921C154.75 32.028 160.896 40.6513 168.479 40.6513C176.062 40.6513 182.208 32.028 182.208 21.3921C182.208 10.7549 176.062 2.13281 168.479 2.13281ZM167.062 23.8898L170.771 21.1935L167.061 18.4779L167.062 23.8898Z" fill="#BDC4CD"/>
</svg>
