<svg width="199" height="33" viewBox="0 0 199 33" fill="none" xmlns="http://www.w3.org/2000/svg">
<path fill-rule="evenodd" clip-rule="evenodd" d="M20.446 11.812L19.0478 11.8129C17.9514 11.8129 17.7388 12.3323 17.7388 13.0944V14.7759H20.3541L20.0134 17.4101H17.7388V24.1675H15.0121V17.4101H12.732V14.7759H15.0121V12.8342C15.0121 10.5796 16.3927 9.35272 18.4082 9.35272C19.3737 9.35272 20.2037 9.42402 20.446 9.45642V11.812ZM16.5885 1.94531C8.38533 1.94531 1.73438 8.57772 1.73438 16.7601C1.73438 24.9416 8.38533 31.5749 16.5885 31.5749C24.7927 31.5749 31.4427 24.9416 31.4427 16.7601C31.4427 8.57772 24.7927 1.94531 16.5885 1.94531Z" fill="#BDC4CD"/>
<path fill-rule="evenodd" clip-rule="evenodd" d="M64.0887 13.7388C64.0942 13.8694 64.098 13.9999 64.098 14.1323C64.098 18.1481 61.0324 22.7796 55.4268 22.7796C53.7056 22.7796 52.1042 22.2768 50.7552 21.4148C50.9938 21.4425 51.2361 21.4564 51.4821 21.4564C52.91 21.4564 54.2237 20.9712 55.2672 20.1555C53.9331 20.1314 52.8079 19.2527 52.4198 18.0453C52.6064 18.0805 52.7967 18.099 52.9935 18.099C53.2711 18.099 53.5404 18.062 53.7966 17.9925C52.4022 17.7138 51.3522 16.4851 51.3522 15.0129C51.3522 14.9999 51.3522 14.987 51.3522 14.974C51.7625 15.2018 52.2332 15.3388 52.7327 15.3546C51.9148 14.8092 51.3763 13.8786 51.3763 12.8249C51.3763 12.2675 51.5267 11.7453 51.7894 11.2962C53.2925 13.1351 55.5382 14.3453 58.0709 14.4722C58.0189 14.2499 57.992 14.0175 57.992 13.7796C57.992 12.1009 59.3567 10.7398 61.0389 10.7398C61.9163 10.7398 62.7082 11.1092 63.2633 11.6999C63.9578 11.5638 64.6104 11.3111 65.199 10.9629C64.9716 11.6722 64.4879 12.2675 63.8594 12.6444C64.4758 12.5703 65.0626 12.4073 65.6094 12.1657C65.2009 12.7749 64.6838 13.3101 64.0887 13.7388ZM58.1823 1.94531C49.9781 1.94531 43.3281 8.57772 43.3281 16.7601C43.3281 24.9416 49.9781 31.5749 58.1823 31.5749C66.3864 31.5749 73.0365 24.9416 73.0365 16.7601C73.0365 8.57772 66.3864 1.94531 58.1823 1.94531Z" fill="#BDC4CD"/>
<path fill-rule="evenodd" clip-rule="evenodd" d="M107.195 24.1536H104.118V19.3499C104.118 18.2046 104.097 16.7314 102.518 16.7314C100.917 16.7314 100.672 17.9796 100.672 19.2685V24.1536H97.5977V14.2759H100.548V15.6268H100.591C101.001 14.8499 102.006 14.0305 103.503 14.0305C106.62 14.0305 107.195 16.0759 107.195 18.7361V24.1536ZM94.1274 12.9268C93.1386 12.9268 92.3411 12.1286 92.3411 11.1462C92.3411 10.1638 93.1386 9.36568 94.1274 9.36568C95.1114 9.36568 95.9108 10.1638 95.9108 11.1462C95.9108 12.1286 95.1114 12.9268 94.1274 12.9268ZM95.6666 24.1536H92.5853V14.2759H95.6666V24.1536ZM99.7682 1.94531C91.5641 1.94531 84.9141 8.57772 84.9141 16.7601C84.9141 24.9416 91.5641 31.5749 99.7682 31.5749C107.972 31.5749 114.622 24.9416 114.622 16.7601C114.622 8.57772 107.972 1.94531 99.7682 1.94531Z" fill="#BDC4CD"/>
<path fill-rule="evenodd" clip-rule="evenodd" d="M190.383 17.3194C190.383 18.5185 190.234 19.7175 190.234 19.7175C190.234 19.7175 190.089 20.7379 189.644 21.1879C189.079 21.7777 188.446 21.7805 188.156 21.8148C186.077 21.9648 182.956 21.9694 182.956 21.9694C182.956 21.9694 179.094 21.9342 177.905 21.8212C177.575 21.7592 176.832 21.7777 176.268 21.1879C175.822 20.7379 175.677 19.7175 175.677 19.7175C175.677 19.7175 175.529 18.5185 175.529 17.3194V16.1953C175.529 14.9962 175.677 13.7981 175.677 13.7981C175.677 13.7981 175.822 12.7768 176.268 12.3268C176.832 11.737 177.465 11.7342 177.756 11.6999C179.835 11.5499 182.953 11.5499 182.953 11.5499H182.959C182.959 11.5499 186.077 11.5499 188.156 11.6999C188.446 11.7342 189.079 11.737 189.644 12.3268C190.089 12.7768 190.234 13.7981 190.234 13.7981C190.234 13.7981 190.383 14.9962 190.383 16.1953V17.3194ZM182.956 1.94531C174.752 1.94531 168.102 8.57772 168.102 16.7601C168.102 24.9416 174.752 31.5749 182.956 31.5749C191.16 31.5749 197.81 24.9416 197.81 16.7601C197.81 8.57772 191.16 1.94531 182.956 1.94531ZM181.422 18.6814L185.436 16.6073L181.421 14.5185L181.422 18.6814Z" fill="#BDC4CD"/>
</svg>
