<svg width="184" height="38" viewBox="0 0 184 38" fill="none" xmlns="http://www.w3.org/2000/svg">
<path fill-rule="evenodd" clip-rule="evenodd" d="M18.2788 13.3191L16.9866 13.3202C15.9732 13.3202 15.7767 13.9337 15.7767 14.8339V16.8202H18.1939L17.879 19.9319H15.7767V27.9141H13.2565V19.9319H11.1491V16.8202H13.2565V14.5266C13.2565 11.8633 14.5325 10.4141 16.3954 10.4141C17.2878 10.4141 18.0549 10.4983 18.2788 10.5366V13.3191ZM14.7135 1.66406C7.13161 1.66406 0.984375 9.49859 0.984375 19.1641C0.984375 28.8284 7.13161 36.6641 14.7135 36.6641C22.2963 36.6641 28.4427 28.8284 28.4427 19.1641C28.4427 9.49859 22.2963 1.66406 14.7135 1.66406Z" fill="#BDC4CD"/>
<path fill-rule="evenodd" clip-rule="evenodd" d="M58.6179 15.5952C58.6231 15.7494 58.6265 15.9036 58.6265 16.06C58.6265 20.8036 55.7931 26.2745 50.6121 26.2745C49.0212 26.2745 47.5411 25.6806 46.2943 24.6623C46.5148 24.6952 46.7388 24.7116 46.9661 24.7116C48.2859 24.7116 49.5 24.1384 50.4645 23.1748C49.2315 23.1464 48.1915 22.1084 47.8328 20.6822C48.0053 20.7237 48.1812 20.7456 48.3631 20.7456C48.6197 20.7456 48.8685 20.7019 49.1053 20.6198C47.8165 20.2906 46.846 18.8392 46.846 17.1002C46.846 17.0848 46.846 17.0695 46.846 17.0542C47.2253 17.3233 47.6603 17.4852 48.122 17.5037C47.366 16.8595 46.8683 15.7603 46.8683 14.5156C46.8683 13.8572 47.0073 13.2403 47.2502 12.7098C48.6394 14.882 50.7151 16.3116 53.0559 16.4614C53.0078 16.1989 52.983 15.9244 52.983 15.6433C52.983 13.6603 54.2443 12.0525 55.7991 12.0525C56.61 12.0525 57.342 12.4889 57.8551 13.1867C58.4969 13.0259 59.1002 12.7273 59.6442 12.3161C59.4339 13.1539 58.9869 13.8572 58.406 14.3023C58.9757 14.2148 59.518 14.0223 60.0234 13.7369C59.6459 14.4566 59.1679 15.0887 58.6179 15.5952ZM53.1589 1.66406C45.5761 1.66406 39.4297 9.49859 39.4297 19.1641C39.4297 28.8284 45.5761 36.6641 53.1589 36.6641C60.7416 36.6641 66.888 28.8284 66.888 19.1641C66.888 9.49859 60.7416 1.66406 53.1589 1.66406Z" fill="#BDC4CD"/>
<path fill-rule="evenodd" clip-rule="evenodd" d="M98.4609 27.8976H95.6164V22.2233C95.6164 20.8703 95.5976 19.1302 94.138 19.1302C92.6578 19.1302 92.4321 20.6045 92.4321 22.127V27.8976H89.5902V16.2295H92.3171V17.8253H92.3566C92.7359 16.9077 93.6643 15.9397 95.0484 15.9397C97.9289 15.9397 98.4609 18.3558 98.4609 21.4981V27.8976ZM86.3827 14.6359C85.4689 14.6359 84.7318 13.6931 84.7318 12.5327C84.7318 11.3722 85.4689 10.4294 86.3827 10.4294C87.2923 10.4294 88.0311 11.3722 88.0311 12.5327C88.0311 13.6931 87.2923 14.6359 86.3827 14.6359ZM87.8054 27.8977H84.9574V16.2295H87.8054V27.8977ZM91.5964 1.66406C84.0136 1.66406 77.8672 9.49859 77.8672 19.1641C77.8672 28.8284 84.0136 36.6641 91.5964 36.6641C99.1791 36.6641 105.326 28.8284 105.326 19.1641C105.326 9.49859 99.1791 1.66406 91.5964 1.66406Z" fill="#BDC4CD"/>
<path fill-rule="evenodd" clip-rule="evenodd" d="M175.344 19.8247C175.344 21.2411 175.206 22.6575 175.206 22.6575C175.206 22.6575 175.073 23.8628 174.661 24.3944C174.139 25.0911 173.554 25.0944 173.285 25.1348C171.364 25.312 168.479 25.3175 168.479 25.3175C168.479 25.3175 164.91 25.2759 163.811 25.1425C163.506 25.0692 162.819 25.0911 162.298 24.3944C161.886 23.8628 161.752 22.6575 161.752 22.6575C161.752 22.6575 161.615 21.2411 161.615 19.8247V18.4969C161.615 17.0805 161.752 15.6652 161.752 15.6652C161.752 15.6652 161.886 14.4587 162.298 13.9272C162.819 13.2305 163.405 13.2272 163.673 13.1867C165.594 13.0095 168.477 13.0095 168.477 13.0095H168.482C168.482 13.0095 171.364 13.0095 173.285 13.1867C173.554 13.2272 174.139 13.2305 174.661 13.9272C175.073 14.4587 175.206 15.6652 175.206 15.6652C175.206 15.6652 175.344 17.0805 175.344 18.4969V19.8247ZM168.479 1.66406C160.896 1.66406 154.75 9.49859 154.75 19.1641C154.75 28.8284 160.896 36.6641 168.479 36.6641C176.062 36.6641 182.208 28.8284 182.208 19.1641C182.208 9.49859 176.062 1.66406 168.479 1.66406ZM167.062 21.4336L170.771 18.9836L167.061 16.5161L167.062 21.4336Z" fill="#BDC4CD"/>
</svg>
