<svg width="31" height="23" viewBox="0 0 31 23" fill="none" xmlns="http://www.w3.org/2000/svg">
<path d="M20.7256 2.65625C18.5404 2.65625 16.4431 3.4171 15.0742 4.61942C13.7053 3.4171 11.608 2.65625 9.42285 2.65625C5.5548 2.65625 2.51562 4.92939 2.51562 7.82249C2.51562 11.3731 6.78555 14.2662 13.2532 18.6622L15.0742 19.8927L16.8952 18.6528C23.3629 14.2662 27.6328 11.3731 27.6328 7.82249C27.6328 4.92939 24.5936 2.65625 20.7256 2.65625ZM15.1998 17.2626L15.0742 17.3565L14.9486 17.2626C8.97074 13.2142 5.02734 10.5371 5.02734 7.82249C5.02734 5.94386 6.91113 4.53488 9.42285 4.53488C11.3569 4.53488 13.2407 5.4648 13.9063 6.75167H16.2547C16.9078 5.4648 18.7916 4.53488 20.7256 4.53488C23.2373 4.53488 25.1211 5.94386 25.1211 7.82249C25.1211 10.5371 21.1777 13.2142 15.1998 17.2626Z" fill="#0D6EFD"/>
</svg>
