<svg width="30" height="31" viewBox="0 0 30 31" fill="none" xmlns="http://www.w3.org/2000/svg">
<path fill-rule="evenodd" clip-rule="evenodd" d="M14.9874 18.3012C16.4453 18.3012 17.6277 17.0535 17.6277 15.5135C17.6277 13.9744 16.4453 12.7267 14.9874 12.7267C13.5295 12.7267 12.3471 13.9744 12.3471 15.5135C12.3471 17.0535 13.5295 18.3012 14.9874 18.3012ZM18.0276 12.6588H19.8837C20.0956 12.6588 20.2681 12.4772 20.2681 12.2538V10.2934C20.2681 10.07 20.0956 9.88839 19.8837 9.88839H18.0276C17.8157 9.88839 17.6432 10.07 17.6432 10.2934V12.2538C17.6432 12.4772 17.8157 12.6588 18.0276 12.6588ZM21.8359 21.0382C21.8359 21.9898 21.1057 22.7616 20.2039 22.7616H9.73883C8.83785 22.7616 8.10677 21.9898 8.10677 21.0382V9.95558C8.10677 9.00396 8.83785 8.23304 9.73883 8.23304H20.2039C21.1057 8.23304 21.8359 9.00396 21.8359 9.95558V21.0382ZM14.9714 0.96875C7.38857 0.96875 1.24219 7.47301 1.24219 15.4973C1.24219 23.5207 7.38857 30.0259 14.9714 30.0259C22.5541 30.0259 28.7005 23.5207 28.7005 15.4973C28.7005 7.47301 22.5541 0.96875 14.9714 0.96875ZM19.1637 15.5138C19.1637 17.9447 17.2906 19.9233 14.9875 19.9233C12.6844 19.9233 10.8112 17.9447 10.8112 15.5138C10.8112 15.1107 10.8627 14.7193 10.9597 14.3479H9.67516V20.666C9.67516 20.8903 9.84677 21.0719 10.0587 21.0719H19.9154C20.1282 21.0719 20.2998 20.8903 20.2998 20.666V14.3479H19.0153C19.1122 14.7193 19.1637 15.1107 19.1637 15.5138Z" fill="#895AA5"/>
</svg>
