<svg width="29" height="43" viewBox="0 0 29 43" fill="none" xmlns="http://www.w3.org/2000/svg">
<path d="M25.9033 16.7408H20.2872L15.1517 5.22187C14.9289 4.73021 14.5537 4.48438 14.1785 4.48438C13.8033 4.48438 13.4281 4.73021 13.2054 5.23943L8.06991 16.7408H2.45373C1.80887 16.7408 1.28125 17.531 1.28125 18.4968C1.28125 18.6548 1.29297 18.8128 1.32815 18.9709L4.30625 35.2485C4.57592 36.7234 5.47873 37.8121 6.55741 37.8121H21.7997C22.8783 37.8121 23.7812 36.7234 24.0625 35.2485L27.0406 18.9709L27.0758 18.4968C27.0758 17.531 26.5482 16.7408 25.9033 16.7408ZM14.1785 9.36589L17.4615 16.7408H10.8956L14.1785 9.36589ZM21.7997 34.3002L6.56914 34.3178L3.98968 20.2527H24.3791L21.7997 34.3002ZM14.1785 23.7646C12.8888 23.7646 11.8336 25.3449 11.8336 27.2765C11.8336 29.208 12.8888 30.7884 14.1785 30.7884C15.4683 30.7884 16.5235 29.208 16.5235 27.2765C16.5235 25.3449 15.4683 23.7646 14.1785 23.7646Z" fill="#8B96A5"/>
</svg>
