<svg width="31" height="31" viewBox="0 0 31 31" fill="none" xmlns="http://www.w3.org/2000/svg">
<path fill-rule="evenodd" clip-rule="evenodd" d="M22.3906 22.748H19.5461V18.0371C19.5461 16.9139 19.5272 15.4692 18.0677 15.4692C16.5875 15.4692 16.3618 16.6932 16.3618 17.9572V22.748H13.5199V13.0611H16.2468V14.3859H16.2863C16.6656 13.624 17.594 12.8204 18.9781 12.8204C21.8586 12.8204 22.3906 14.8263 22.3906 17.4351V22.748ZM10.3124 11.7381C9.39854 11.7381 8.66146 10.9553 8.66146 9.9919C8.66146 9.02848 9.39854 8.24575 10.3124 8.24575C11.222 8.24575 11.9608 9.02848 11.9608 9.9919C11.9608 10.9553 11.222 11.7381 10.3124 11.7381ZM11.7351 22.748H8.88713V13.0611H11.7351V22.748ZM15.526 0.96875C7.94325 0.96875 1.79688 7.47301 1.79688 15.4973C1.79688 23.5207 7.94325 30.0259 15.526 30.0259C23.1088 30.0259 29.2552 23.5207 29.2552 15.4973C29.2552 7.47301 23.1088 0.96875 15.526 0.96875Z" fill="#895AA5"/>
</svg>
