<svg width="30" height="31" viewBox="0 0 30 31" fill="none" xmlns="http://www.w3.org/2000/svg">
<rect width="29.2889" height="30.9943" fill="white"/>
<path fill-rule="evenodd" clip-rule="evenodd" d="M18.2085 10.6448L16.9163 10.6457C15.9029 10.6457 15.7064 11.1551 15.7064 11.9024V13.5514H18.1236L17.8087 16.1348H15.7064V22.7616H13.1862V16.1348H11.0788V13.5514H13.1862V11.6473C13.1862 9.43618 14.4622 8.23304 16.3251 8.23304C17.2175 8.23304 17.9846 8.30295 18.2085 8.33474V10.6448ZM14.6432 0.96875C7.0613 0.96875 0.914062 7.47301 0.914062 15.4973C0.914062 23.5207 7.0613 30.0259 14.6432 30.0259C22.226 30.0259 28.3724 23.5207 28.3724 15.4973C28.3724 7.47301 22.226 0.96875 14.6432 0.96875Z" fill="#895AA5"/>
</svg>
