<svg width="31" height="31" viewBox="0 0 31 31" fill="none" xmlns="http://www.w3.org/2000/svg">
<path fill-rule="evenodd" clip-rule="evenodd" d="M22.2734 16.0458C22.2734 17.2217 22.1362 18.3976 22.1362 18.3976C22.1362 18.3976 22.0023 19.3982 21.5904 19.8395C21.0687 20.418 20.4835 20.4207 20.2149 20.4543C18.2937 20.6014 15.4089 20.6059 15.4089 20.6059C15.4089 20.6059 11.8393 20.5714 10.7409 20.4606C10.4355 20.3998 9.74901 20.418 9.2273 19.8395C8.81542 19.3982 8.68156 18.3976 8.68156 18.3976C8.68156 18.3976 8.54427 17.2217 8.54427 16.0458V14.9434C8.54427 13.7675 8.68156 12.5925 8.68156 12.5925C8.68156 12.5925 8.81542 11.591 9.2273 11.1496C9.74901 10.5712 10.3342 10.5685 10.6028 10.5349C12.524 10.3878 15.4063 10.3878 15.4063 10.3878H15.4114C15.4114 10.3878 18.2937 10.3878 20.2149 10.5349C20.4835 10.5685 21.0687 10.5712 21.5904 11.1496C22.0023 11.591 22.1362 12.5925 22.1362 12.5925C22.1362 12.5925 22.2734 13.7675 22.2734 14.9434V16.0458ZM15.4089 0.96875C7.82607 0.96875 1.67969 7.47301 1.67969 15.4973C1.67969 23.5207 7.82607 30.0259 15.4089 30.0259C22.9916 30.0259 29.138 23.5207 29.138 15.4973C29.138 7.47301 22.9916 0.96875 15.4089 0.96875ZM13.9915 17.3815L17.7009 15.3475L13.9906 13.299L13.9915 17.3815Z" fill="#895AA5"/>
</svg>
