<svg width="30" height="31" viewBox="0 0 30 31" fill="none" xmlns="http://www.w3.org/2000/svg">
<path fill-rule="evenodd" clip-rule="evenodd" d="M20.5476 12.5344C20.5527 12.6624 20.5562 12.7905 20.5562 12.9203C20.5562 16.8585 17.7228 21.4005 12.5418 21.4005C10.9509 21.4005 9.47074 20.9074 8.22396 20.062C8.44448 20.0893 8.66844 20.1029 8.89583 20.1029C10.2155 20.1029 11.4297 19.6271 12.3942 18.8271C11.1611 18.8035 10.1212 17.9418 9.76248 16.7577C9.93495 16.7922 10.1109 16.8103 10.2928 16.8103C10.5493 16.8103 10.7982 16.774 11.035 16.7059C9.74618 16.4326 8.7757 15.2276 8.7757 13.7839C8.7757 13.7711 8.7757 13.7584 8.7757 13.7457C9.15496 13.9691 9.59001 14.1035 10.0517 14.1189C9.29569 13.5841 8.79801 12.6715 8.79801 11.6382C8.79801 11.0915 8.93701 10.5794 9.17985 10.139C10.5691 11.9424 12.6447 13.1292 14.9856 13.2536C14.9375 13.0356 14.9126 12.8077 14.9126 12.5744C14.9126 10.9281 16.174 9.59327 17.7288 9.59327C18.5397 9.59327 19.2716 9.95558 19.7848 10.5349C20.4266 10.4014 21.0298 10.1535 21.5739 9.81211C21.3636 10.5077 20.9166 11.0915 20.3357 11.4611C20.9054 11.3885 21.4477 11.2286 21.9531 10.9916C21.5756 11.5891 21.0976 12.114 20.5476 12.5344ZM15.0885 0.96875C7.50575 0.96875 1.35938 7.47301 1.35938 15.4973C1.35938 23.5207 7.50575 30.0259 15.0885 30.0259C22.6713 30.0259 28.8177 23.5207 28.8177 15.4973C28.8177 7.47301 22.6713 0.96875 15.0885 0.96875Z" fill="#895AA5"/>
</svg>
