<svg width="95" height="30" viewBox="0 0 95 30" fill="none" xmlns="http://www.w3.org/2000/svg">
<path d="M25.2409 3.22257H22.9174V4.09509H24.5654C24.4839 5.31872 23.6795 5.84055 22.9202 5.84055C21.9487 5.84055 21.1009 4.87329 21.1009 3.51749C21.1009 2.19683 21.909 1.17977 22.9222 1.17977C23.7041 1.17977 24.1647 1.81029 24.1647 1.81029L24.6474 1.17763C24.6474 1.17763 24.0278 0.304688 22.8976 0.304688C21.4584 0.304688 20.3452 1.84173 20.3452 3.50184C20.3452 5.1288 21.3924 6.71492 22.9342 6.71492C24.2904 6.71492 25.2831 5.53952 25.2831 3.80117C25.2831 3.4344 25.2409 3.22257 25.2409 3.22257Z" fill="white"/>
<path d="M25.6787 17.2853H30.7846C30.7881 17.3037 30.8769 17.7669 30.8769 18.5565C30.8769 22.3763 28.6956 24.9596 25.7158 24.9596C22.3277 24.9596 20.0265 21.4739 20.0265 17.8992C20.0265 14.2511 22.4729 10.8735 25.6352 10.8737C28.1187 10.8737 29.4803 12.7918 29.4803 12.7918L28.4194 14.1821C28.4194 14.1821 27.4072 12.7962 25.6894 12.7962C23.4631 12.7962 21.6873 15.0312 21.6873 17.9333C21.6873 20.9122 23.5501 23.0378 25.6848 23.0378C27.3533 23.0378 29.1209 21.8912 29.2999 19.2026H25.6787V17.2853Z" fill="white"/>
<path fill-rule="evenodd" clip-rule="evenodd" d="M31.5283 20.387C31.5283 17.9695 33.0297 15.8968 35.1249 15.8968C36.847 15.8968 38.7146 17.4411 38.7146 20.4396C38.7146 23.0558 37.1091 24.9513 35.1493 24.9513C32.9845 24.9513 31.5283 22.8401 31.5283 20.387ZM37.1523 20.4277C37.1523 18.7292 36.176 17.675 35.1456 17.675C33.988 17.675 33.0983 18.8463 33.0983 20.4145C33.0983 22.0171 33.9991 23.1743 35.1409 23.1743C36.18 23.1743 37.1523 22.0901 37.1523 20.4277Z" fill="white"/>
<path fill-rule="evenodd" clip-rule="evenodd" d="M43.0318 15.8968C40.9367 15.8968 39.4351 17.9695 39.4351 20.387C39.4351 22.8401 40.8915 24.9513 43.0564 24.9513C45.0161 24.9513 46.6216 23.0558 46.6216 20.4396C46.6216 17.4411 44.7542 15.8968 43.0318 15.8968ZM43.0526 17.675C44.0829 17.675 45.0593 18.7292 45.0593 20.4277C45.0593 22.0901 44.087 23.1743 43.0478 23.1743C41.9061 23.1743 41.0054 22.0171 41.0054 20.4145C41.0054 18.8463 41.8949 17.675 43.0526 17.675Z" fill="white"/>
<path fill-rule="evenodd" clip-rule="evenodd" d="M47.3419 20.4251C47.3419 18.0329 48.8537 15.9016 50.7766 15.9016C51.6138 15.9016 52.2445 16.3116 52.7057 16.9406V16.1738H54.2057V24.3089C54.2057 27.5052 52.7484 29.0288 50.8363 29.0288C49.0883 29.0288 48.1064 27.6688 47.6185 26.3629L48.9936 25.6355C49.184 26.2189 49.7322 27.2477 50.8249 27.2477C51.9562 27.2477 52.7056 26.3118 52.7056 24.7499V23.8572C52.3054 24.445 51.7632 24.9573 50.7434 24.9573C49.0944 24.9573 47.3419 23.1502 47.3419 20.4251ZM50.9158 17.6763C51.8587 17.6763 52.8269 18.695 52.8269 20.4348C52.8269 22.2032 51.8607 23.1777 50.895 23.1777C49.8699 23.1777 48.9159 22.1244 48.9159 20.4516C48.9159 18.7135 49.9067 17.6763 50.9158 17.6763Z" fill="white"/>
<path fill-rule="evenodd" clip-rule="evenodd" d="M57.8534 20.412C57.8534 17.7171 59.3764 15.8907 61.1903 15.8907C62.621 15.8907 63.7021 17.0982 64.1655 18.5438L64.4147 19.282L59.6174 21.8008C59.904 22.4759 60.3665 23.1729 61.3721 23.173C62.2675 23.173 62.8041 22.557 63.125 21.9266L64.3617 22.968C63.8072 23.907 62.8783 24.9547 61.3646 24.9547C59.551 24.9547 57.8534 23.2636 57.8534 20.412ZM61.253 17.632C61.9066 17.632 62.377 18.0716 62.5768 18.599L59.3731 20.2934C59.2351 18.9815 60.2173 17.632 61.253 17.632Z" fill="white"/>
<path d="M56.9843 24.686H55.4086V11.3418H56.9843V24.686Z" fill="white"/>
<path d="M76.5351 24.686H78.1108V11.3418H76.5351V24.686Z" fill="white"/>
<path fill-rule="evenodd" clip-rule="evenodd" d="M69.7548 24.686H68.1791V11.3418L71.9907 11.3417C73.8384 11.3417 75.35 13.2546 75.35 15.5928C75.35 17.9308 73.8384 19.8437 71.9907 19.8437H69.7548V24.686ZM69.7548 17.8497V13.3357H71.9907C72.9687 13.3357 73.7744 14.3552 73.7744 15.5928C73.7744 16.8302 72.9687 17.8497 71.9907 17.8497H69.7548Z" fill="white"/>
<path d="M89.7447 29.0288L94.3072 15.891H92.5861L90.5215 21.8362L88.4569 15.891H86.7359L89.661 24.3142L88.0237 29.0288H89.7447Z" fill="white"/>
<path fill-rule="evenodd" clip-rule="evenodd" d="M84.5598 24.686H86.1356V19.8866C86.3821 14.9368 81.423 13.7726 79.5465 17.3409L80.8145 18.4176C81.732 16.3878 84.3502 16.8548 84.5223 19.0302C83.7354 18.7664 82.8854 18.5752 82.1088 18.6747C80.8965 18.8299 79.8586 19.8041 79.6937 21.3998C79.6045 22.2621 79.7566 23.3249 80.2323 23.9727C80.9736 24.9819 82.1907 25.1179 83.1906 24.7731C83.7535 24.5789 84.1967 24.1556 84.5598 23.6089V24.686ZM82.816 23.0337C83.6784 22.7365 84.3583 21.9383 84.5598 20.8286C84.1189 20.6479 83.7133 20.5021 83.2484 20.4311C80.5407 19.916 80.994 23.6623 82.816 23.0337Z" fill="white"/>
<path d="M35.4552 6.59058H34.7382V0.517802H35.4552V6.59058Z" fill="white"/>
<path d="M30.7223 6.59058H31.4394V1.42518H32.6165V0.517802H29.5452V1.42518H30.7223V6.59058Z" fill="white"/>
<path d="M28.7891 6.59058H26.039V0.517802H28.7891V1.42518H26.7562V3.10051H28.5444V4.00788H26.7562V5.68307H28.7891V6.59058Z" fill="white"/>
<path d="M37.9332 6.59058V1.42518H39.1102V0.517802H36.039V1.42518H37.2161V6.59058H37.9332Z" fill="white"/>
<path fill-rule="evenodd" clip-rule="evenodd" d="M40.9553 3.50184C40.9553 1.84159 42.0687 0.304688 43.5078 0.304688C44.947 0.304688 46.0603 1.84159 46.0603 3.50184C46.0603 5.11571 45.0296 6.68946 43.5078 6.71435C41.9861 6.68946 40.9553 5.11571 40.9553 3.50184ZM43.5078 5.84013C42.5458 5.82519 41.7112 4.86276 41.7112 3.51749C41.7112 2.20764 42.5062 1.19641 43.5078 1.18005C44.5095 1.19641 45.3045 2.20764 45.3045 3.51749C45.3045 4.86276 44.4698 5.82519 43.5078 5.84013Z" fill="white"/>
<path d="M47.4937 6.59058H46.7766V0.517802H47.4937L49.7956 4.93901V0.517802H50.5127V6.59058H49.7968L47.4937 2.1671V6.59058Z" fill="white"/>
<path d="M0.764966 7.87937L8.86715 18.1169L0.803865 28.4441C0.568562 28.2549 0.442422 27.8452 0.440286 27.3159L0.36721 8.98663C0.364962 8.40704 0.531574 8.05351 0.764966 7.87937Z" fill="white"/>
<path d="M1.68662 7.89317L11.5389 14.6951L9.20228 17.6875L1.34283 7.75645C1.46188 7.77623 1.58139 7.82047 1.68662 7.89317Z" fill="white"/>
<path d="M11.977 21.1935L9.53978 18.1139L11.9746 14.9958L15.3275 17.3103C16.1535 17.8803 15.731 18.5933 15.3275 18.8727L11.977 21.1935Z" fill="white"/>
<path d="M1.68662 28.3203C1.61219 28.373 1.54047 28.4142 1.47178 28.447L9.20464 18.5432L11.5409 21.4953L1.68662 28.3203Z" fill="white"/>
</svg>
