<svg width="103" height="25" viewBox="0 0 103 25" fill="none" xmlns="http://www.w3.org/2000/svg">
<path d="M27.7714 2.4936H25.2574V3.23224H27.0405C26.9523 4.26812 26.082 4.70988 25.2604 4.70988C24.2094 4.70988 23.2921 3.89103 23.2921 2.74327C23.2921 1.62525 24.1664 0.764246 25.2626 0.764246C26.1086 0.764246 26.6069 1.29802 26.6069 1.29802L27.1292 0.762439C27.1292 0.762439 26.4588 0.0234375 25.236 0.0234375C23.6789 0.0234375 22.4745 1.32464 22.4745 2.73002C22.4745 4.10734 23.6075 5.45009 25.2756 5.45009C26.7429 5.45009 27.817 4.45504 27.817 2.98342C27.817 2.67293 27.7714 2.4936 27.7714 2.4936Z" fill="white"/>
<path d="M28.245 14.3986H33.7693C33.7731 14.4141 33.8691 14.8063 33.8691 15.4747C33.8691 18.7084 31.5091 20.8953 28.2852 20.8953C24.6194 20.8953 22.1296 17.9445 22.1296 14.9183C22.1296 11.8299 24.7766 8.97059 28.198 8.97071C30.8849 8.97071 32.3582 10.5946 32.3582 10.5946L31.2103 11.7715C31.2103 11.7715 30.1152 10.5983 28.2566 10.5983C25.8478 10.5983 23.9266 12.4904 23.9266 14.9472C23.9266 17.469 25.942 19.2684 28.2516 19.2684C30.0568 19.2684 31.9693 18.2977 32.1629 16.0217H28.245V14.3986Z" fill="white"/>
<path fill-rule="evenodd" clip-rule="evenodd" d="M34.5739 17.0243C34.5739 14.9777 36.1984 13.2231 38.4653 13.2231C40.3285 13.2231 42.3491 14.5304 42.3491 17.0689C42.3491 19.2836 40.6121 20.8883 38.4917 20.8883C36.1495 20.8883 34.5739 19.101 34.5739 17.0243ZM40.6588 17.0588C40.6588 15.6209 39.6025 14.7284 38.4877 14.7284C37.2352 14.7284 36.2726 15.72 36.2726 17.0476C36.2726 18.4043 37.2472 19.3839 38.4826 19.3839C39.6069 19.3839 40.6588 18.4661 40.6588 17.0588Z" fill="white"/>
<path fill-rule="evenodd" clip-rule="evenodd" d="M47.0201 13.2231C44.7533 13.2231 43.1287 14.9777 43.1287 17.0243C43.1287 19.101 44.7044 20.8883 47.0468 20.8883C49.167 20.8883 50.9041 19.2836 50.9041 17.0689C50.9041 14.5304 48.8836 13.2231 47.0201 13.2231ZM47.0426 14.7284C48.1573 14.7284 49.2137 15.6209 49.2137 17.0588C49.2137 18.4661 48.1618 19.3839 47.0374 19.3839C45.8022 19.3839 44.8276 18.4043 44.8276 17.0476C44.8276 15.72 45.79 14.7284 47.0426 14.7284Z" fill="white"/>
<path fill-rule="evenodd" clip-rule="evenodd" d="M51.6834 17.0566C51.6834 15.0315 53.3191 13.2272 55.3995 13.2272C56.3054 13.2272 56.9877 13.5743 57.4867 14.1067V13.4576H59.1096V20.3444C59.1096 23.0503 57.5329 24.3402 55.4641 24.3402C53.5729 24.3402 52.5105 23.1888 51.9826 22.0833L53.4704 21.4675C53.6764 21.9614 54.2695 22.8323 55.4518 22.8323C56.6757 22.8323 57.4866 22.0401 57.4866 20.7178V19.962C57.0536 20.4597 56.467 20.8934 55.3637 20.8934C53.5795 20.8934 51.6834 19.3636 51.6834 17.0566ZM55.5501 14.7295C56.5703 14.7295 57.6178 15.592 57.6178 17.0648C57.6178 18.5618 56.5725 19.3868 55.5276 19.3868C54.4185 19.3868 53.3863 18.4951 53.3863 17.079C53.3863 15.6076 54.4583 14.7295 55.5501 14.7295Z" fill="white"/>
<path fill-rule="evenodd" clip-rule="evenodd" d="M63.0562 17.0455C63.0562 14.7641 64.704 13.2179 66.6666 13.2179C68.2145 13.2179 69.3842 14.2402 69.8856 15.464L70.1551 16.0889L64.9648 18.2212C65.2748 18.7927 65.7753 19.3827 66.8633 19.3829C67.832 19.3829 68.4126 18.8614 68.7599 18.3277L70.0979 19.2093C69.4979 20.0042 68.4929 20.8912 66.8551 20.8912C64.8929 20.8912 63.0562 19.4596 63.0562 17.0455ZM66.7344 14.6921C67.4416 14.6921 67.9505 15.0642 68.1666 15.5107L64.7005 16.9451C64.5511 15.8345 65.6138 14.6921 66.7344 14.6921Z" fill="white"/>
<path d="M62.1159 20.6637H60.4111V9.36707H62.1159V20.6637Z" fill="white"/>
<path d="M83.2688 20.6637H84.9736V9.36707H83.2688V20.6637Z" fill="white"/>
<path fill-rule="evenodd" clip-rule="evenodd" d="M75.9329 20.6637H74.228V9.36707L78.352 9.36695C80.3511 9.36695 81.9866 10.9863 81.9866 12.9657C81.9866 14.945 80.3511 16.5644 78.352 16.5644H75.9329V20.6637ZM75.9329 14.8763V11.055H78.352C79.4101 11.055 80.2819 11.918 80.2819 12.9657C80.2819 14.0133 79.4101 14.8763 78.352 14.8763H75.9329Z" fill="white"/>
<path d="M97.5608 24.3402L102.497 13.2182H100.635L98.4013 18.2511L96.1675 13.2182H94.3055L97.4702 20.3489L95.6988 24.3402H97.5608Z" fill="white"/>
<path fill-rule="evenodd" clip-rule="evenodd" d="M91.9511 20.6637H93.6559V16.6008C93.9227 12.4104 88.5572 11.4249 86.5269 14.4457L87.8989 15.3571C88.8916 13.6387 91.7242 14.0341 91.9105 15.8757C91.0591 15.6524 90.1394 15.4906 89.2992 15.5748C87.9876 15.7061 86.8646 16.5309 86.6862 17.8817C86.5897 18.6117 86.7543 19.5115 87.2689 20.0598C88.071 20.9142 89.3878 21.0293 90.4697 20.7374C91.0787 20.573 91.5582 20.2147 91.9511 19.7519V20.6637ZM90.0644 19.2649C90.9975 19.0134 91.733 18.3376 91.9511 17.3982C91.474 17.2452 91.0352 17.1218 90.5322 17.0617C87.6026 16.6256 88.093 19.797 90.0644 19.2649Z" fill="white"/>
<path d="M38.8227 5.34483H38.0469V0.203852H38.8227V5.34483Z" fill="white"/>
<path d="M33.7019 5.34483H34.4778V0.972H35.7513V0.203852H32.4283V0.972H33.7019V5.34483Z" fill="white"/>
<path d="M31.6103 5.34483H28.6349V0.203852H31.6103V0.972H29.4108V2.39027H31.3455V3.15841H29.4108V4.57656H31.6103V5.34483Z" fill="white"/>
<path d="M41.5037 5.34483V0.972H42.7772V0.203852H39.4543V0.972H40.7279V5.34483H41.5037Z" fill="white"/>
<path fill-rule="evenodd" clip-rule="evenodd" d="M44.7735 2.73002C44.7735 1.32452 45.9781 0.0234375 47.5351 0.0234375C49.0922 0.0234375 50.2968 1.32452 50.2968 2.73002C50.2968 4.09626 49.1816 5.42853 47.5351 5.44961C45.8887 5.42853 44.7735 4.09626 44.7735 2.73002ZM47.5351 4.70952C46.4943 4.69688 45.5912 3.88212 45.5912 2.74327C45.5912 1.6344 46.4515 0.778337 47.5351 0.764487C48.6189 0.778337 49.479 1.6344 49.479 2.74327C49.479 3.88212 48.576 4.69688 47.5351 4.70952Z" fill="white"/>
<path d="M51.8476 5.34483H51.0717V0.203852H51.8476L54.3381 3.94668V0.203852H55.1141V5.34483H54.3395L51.8476 1.60008V5.34483Z" fill="white"/>
<path d="M1.28975 6.43587L10.0559 15.1025L1.33184 23.8452C1.07725 23.685 0.940774 23.3381 0.938463 22.8901L0.859399 7.37323C0.856967 6.88257 1.03723 6.58328 1.28975 6.43587Z" fill="white"/>
<path d="M2.28693 6.44755L12.9465 12.2058L10.4185 14.739L1.91496 6.33181C2.04377 6.34855 2.17307 6.38601 2.28693 6.44755Z" fill="white"/>
<path d="M13.4206 17.7071L10.7836 15.1L13.4179 12.4604L17.0456 14.4198C17.9392 14.9022 17.4821 15.5059 17.0456 15.7424L13.4206 17.7071Z" fill="white"/>
<path d="M2.28693 23.7404C2.2064 23.7849 2.1288 23.8199 2.05448 23.8476L10.421 15.4635L12.9487 17.9625L2.28693 23.7404Z" fill="white"/>
</svg>
