<svg width="95" height="32" viewBox="0 0 95 32" fill="none" xmlns="http://www.w3.org/2000/svg">
<path d="M25.2409 3.42996H22.9174V4.3902H24.5654C24.4839 5.73684 23.6795 6.31113 22.9202 6.31113C21.9487 6.31113 21.1009 5.24663 21.1009 3.75453C21.1009 2.30111 21.909 1.1818 22.9222 1.1818C23.7041 1.1818 24.1647 1.87571 24.1647 1.87571L24.6474 1.17945C24.6474 1.17945 24.0278 0.21875 22.8976 0.21875C21.4584 0.21875 20.3452 1.91031 20.3452 3.73731C20.3452 5.52782 21.3924 7.2734 22.9342 7.2734C24.2904 7.2734 25.2831 5.97984 25.2831 4.06673C25.2831 3.66309 25.2409 3.42996 25.2409 3.42996Z" fill="white"/>
<path d="M25.6787 18.9064H30.7846C30.7881 18.9267 30.8769 19.4365 30.8769 20.3054C30.8769 24.5092 28.6956 27.3522 25.7158 27.3522C22.3277 27.3522 20.0265 23.5161 20.0265 19.582C20.0265 15.5671 22.4729 11.85 25.6352 11.8502C28.1187 11.8502 29.4803 13.9612 29.4803 13.9612L28.4194 15.4912C28.4194 15.4912 27.4072 13.9661 25.6894 13.9661C23.4631 13.9661 21.6873 16.4258 21.6873 19.6196C21.6873 22.898 23.5501 25.2373 25.6848 25.2373C27.3533 25.2373 29.1209 23.9753 29.2999 21.0165H25.6787V18.9064Z" fill="white"/>
<path fill-rule="evenodd" clip-rule="evenodd" d="M31.5283 22.3199C31.5283 19.6594 33.0297 17.3783 35.1249 17.3783C36.847 17.3783 38.7146 19.0779 38.7146 22.3779C38.7146 25.257 37.1091 27.3431 35.1493 27.3431C32.9845 27.3431 31.5283 25.0196 31.5283 22.3199ZM37.1523 22.3647C37.1523 20.4954 36.176 19.3353 35.1456 19.3353C33.988 19.3353 33.0983 20.6243 33.0983 22.3501C33.0983 24.1139 33.9991 25.3874 35.1409 25.3874C36.18 25.3874 37.1523 24.1942 37.1523 22.3647Z" fill="white"/>
<path fill-rule="evenodd" clip-rule="evenodd" d="M43.0318 17.3783C40.9367 17.3783 39.4351 19.6594 39.4351 22.3199C39.4351 25.0196 40.8915 27.3431 43.0564 27.3431C45.0161 27.3431 46.6216 25.257 46.6216 22.3779C46.6216 19.0779 44.7542 17.3783 43.0318 17.3783ZM43.0526 19.3353C44.0829 19.3353 45.0593 20.4954 45.0593 22.3647C45.0593 24.1942 44.087 25.3874 43.0478 25.3874C41.9061 25.3874 41.0054 24.1139 41.0054 22.3501C41.0054 20.6243 41.8949 19.3353 43.0526 19.3353Z" fill="white"/>
<path fill-rule="evenodd" clip-rule="evenodd" d="M47.3419 22.3619C47.3419 19.7292 48.8537 17.3836 50.7766 17.3836C51.6138 17.3836 52.2445 17.8349 52.7057 18.5271V17.6832H54.2057V26.636C54.2057 30.1537 52.7484 31.8305 50.8363 31.8305C49.0883 31.8305 48.1064 30.3337 47.6185 28.8966L48.9936 28.096C49.184 28.7381 49.7322 29.8703 50.8249 29.8703C51.9562 29.8703 52.7056 28.8404 52.7056 27.1214V26.1389C52.3054 26.7859 51.7632 27.3497 50.7434 27.3497C49.0944 27.3497 47.3419 25.3609 47.3419 22.3619ZM50.9158 19.3367C51.8587 19.3367 52.8269 20.4579 52.8269 22.3725C52.8269 24.3187 51.8607 25.3912 50.895 25.3912C49.8699 25.3912 48.9159 24.2319 48.9159 22.391C48.9159 20.4782 49.9067 19.3367 50.9158 19.3367Z" fill="white"/>
<path fill-rule="evenodd" clip-rule="evenodd" d="M57.8534 22.3475C57.8534 19.3816 59.3764 17.3716 61.1903 17.3716C62.621 17.3716 63.7021 18.7005 64.1655 20.2914L64.4147 21.1039L59.6174 23.8759C59.904 24.6188 60.3665 25.3858 61.3721 25.386C62.2675 25.386 62.8041 24.7081 63.125 24.0143L64.3617 25.1604C63.8072 26.1937 62.8783 27.3469 61.3646 27.3469C59.551 27.3469 57.8534 25.4857 57.8534 22.3475ZM61.253 19.288C61.9066 19.288 62.377 19.7718 62.5768 20.3522L59.3731 22.2169C59.2351 20.7732 60.2173 19.288 61.253 19.288Z" fill="white"/>
<path d="M56.9843 27.0511H55.4086V12.3655H56.9843V27.0511Z" fill="white"/>
<path d="M76.5351 27.0511H78.1108V12.3655H76.5351V27.0511Z" fill="white"/>
<path fill-rule="evenodd" clip-rule="evenodd" d="M69.7548 27.0511H68.1791V12.3655L71.9907 12.3653C73.8384 12.3653 75.35 14.4705 75.35 17.0437C75.35 19.6168 73.8384 21.722 71.9907 21.722H69.7548V27.0511ZM69.7548 19.5275V14.5598H71.9907C72.9687 14.5598 73.7744 15.6817 73.7744 17.0437C73.7744 18.4056 72.9687 19.5275 71.9907 19.5275H69.7548Z" fill="white"/>
<path d="M89.7447 31.8305L94.3072 17.3719H92.5861L90.5215 23.9148L88.4569 17.3719H86.7359L89.661 26.6419L88.0237 31.8305H89.7447Z" fill="white"/>
<path fill-rule="evenodd" clip-rule="evenodd" d="M84.5598 27.0511H86.1356V21.7693C86.3821 16.3218 81.423 15.0406 79.5465 18.9676L80.8145 20.1525C81.732 17.9186 84.3502 18.4326 84.5223 20.8267C83.7354 20.5365 82.8854 20.326 82.1088 20.4355C80.8965 20.6063 79.8586 21.6785 79.6937 23.4345C79.6045 24.3835 79.7566 25.5532 80.2323 26.2661C80.9736 27.3768 82.1907 27.5264 83.1906 27.1469C83.7535 26.9332 84.1967 26.4674 84.5598 25.8657V27.0511ZM82.816 25.2327C83.6784 24.9056 84.3583 24.0271 84.5598 22.8059C84.1189 22.6071 83.7133 22.4466 83.2484 22.3685C80.5407 21.8015 80.994 25.9244 82.816 25.2327Z" fill="white"/>
<path d="M35.4552 7.13656H34.7382V0.453289H35.4552V7.13656Z" fill="white"/>
<path d="M30.7223 7.13656H31.4394V1.45188H32.6165V0.453289H29.5452V1.45188H30.7223V7.13656Z" fill="white"/>
<path d="M28.7891 7.13656H26.039V0.453289H28.7891V1.45188H26.7562V3.29563H28.5444V4.29422H26.7562V6.13781H28.7891V7.13656Z" fill="white"/>
<path d="M37.9332 7.13656V1.45188H39.1102V0.453289H36.039V1.45188H37.2161V7.13656H37.9332Z" fill="white"/>
<path fill-rule="evenodd" clip-rule="evenodd" d="M40.9553 3.73731C40.9553 1.91016 42.0687 0.21875 43.5078 0.21875C44.947 0.21875 46.0603 1.91016 46.0603 3.73731C46.0603 5.51342 45.0296 7.24538 43.5078 7.27278C41.9861 7.24538 40.9553 5.51342 40.9553 3.73731ZM43.5078 6.31066C42.5458 6.29422 41.7112 5.23504 41.7112 3.75453C41.7112 2.31301 42.5062 1.20012 43.5078 1.18211C44.5095 1.20012 45.3045 2.31301 45.3045 3.75453C45.3045 5.23504 44.4698 6.29422 43.5078 6.31066Z" fill="white"/>
<path d="M47.4937 7.13656H46.7766V0.453289H47.4937L49.7956 5.31896V0.453289H50.5127V7.13656H49.7968L47.4937 2.26838V7.13656Z" fill="white"/>
<path d="M0.764966 8.55491L8.86715 19.8216L0.803865 31.187C0.568562 30.9788 0.442422 30.5279 0.440286 29.9454L0.36721 9.77348C0.364962 9.13562 0.531574 8.74655 0.764966 8.55491Z" fill="white"/>
<path d="M1.68662 8.5701L11.5389 16.0558L9.20228 19.349L1.34283 8.41964C1.46188 8.4414 1.58139 8.49009 1.68662 8.5701Z" fill="white"/>
<path d="M11.977 23.2075L9.53978 19.8183L11.9746 16.3868L15.3275 18.934C16.1535 19.5612 15.731 20.3459 15.3275 20.6534L11.977 23.2075Z" fill="white"/>
<path d="M1.68662 31.0508C1.61219 31.1087 1.54047 31.1541 1.47178 31.1901L9.20464 20.2908L11.5409 23.5396L1.68662 31.0508Z" fill="white"/>
</svg>
