<svg width="37" height="41" viewBox="0 0 37 41" fill="none" xmlns="http://www.w3.org/2000/svg">
<path d="M26.2057 30.7474C24.4945 30.7474 23.1224 32.2678 23.1224 34.1641C23.1224 35.0702 23.4472 35.9393 24.0255 36.58C24.6037 37.2208 25.388 37.5807 26.2057 37.5807C27.0235 37.5807 27.8077 37.2208 28.386 36.58C28.9642 35.9393 29.2891 35.0702 29.2891 34.1641C29.2891 33.2579 28.9642 32.3889 28.386 31.7481C27.8077 31.1074 27.0235 30.7474 26.2057 30.7474ZM1.53906 3.41406V6.83073H4.6224L10.1724 19.797L8.07573 23.9824C7.84448 24.4607 7.70573 25.0245 7.70573 25.6224C7.70573 26.5286 8.03058 27.3976 8.60882 28.0383C9.18705 28.6791 9.97131 29.0391 10.7891 29.0391H29.2891V25.6224H11.4366C11.3343 25.6224 11.2363 25.5774 11.164 25.4973C11.0918 25.4172 11.0511 25.3086 11.0511 25.1953C11.0511 25.1099 11.0666 25.0416 11.0974 24.9903L12.4849 22.2057H23.9703C25.1266 22.2057 26.1441 21.4882 26.6682 20.4461L32.1874 9.39323C32.2953 9.1199 32.3724 8.82948 32.3724 8.53906C32.3724 8.08598 32.21 7.65146 31.9209 7.33109C31.6317 7.01071 31.2396 6.83073 30.8307 6.83073H8.02948L6.58031 3.41406M10.7891 30.7474C9.07781 30.7474 7.70573 32.2678 7.70573 34.1641C7.70573 35.0702 8.03058 35.9393 8.60882 36.58C9.18705 37.2208 9.97131 37.5807 10.7891 37.5807C11.6068 37.5807 12.3911 37.2208 12.9693 36.58C13.5475 35.9393 13.8724 35.0702 13.8724 34.1641C13.8724 33.2579 13.5475 32.3889 12.9693 31.7481C12.3911 31.1074 11.6068 30.7474 10.7891 30.7474Z" fill="black"/>
</svg>
