<svg width="102" height="16" viewBox="0 0 102 16" fill="none" xmlns="http://www.w3.org/2000/svg">
<path fill-rule="evenodd" clip-rule="evenodd" d="M91.0017 12.8824L97.2504 15.7887L95.5922 10.3111L101.113 6.62561L93.843 6.15031L91.0017 0.984375L88.1605 6.15031L80.8906 6.62561L86.4113 10.3111L84.7531 15.7887L91.0017 12.8824Z" fill="#D5CDC5"/>
<path fill-rule="evenodd" clip-rule="evenodd" d="M70.7752 12.8824L77.0238 15.7887L75.3656 10.3111L80.8863 6.62561L73.6164 6.15031L70.7752 0.984375L67.9339 6.15031L60.6641 6.62561L66.1847 10.3111L64.5265 15.7887L70.7752 12.8824Z" fill="#FF9017"/>
<path fill-rule="evenodd" clip-rule="evenodd" d="M50.5564 12.8824L56.8051 15.7887L55.1469 10.3111L60.6675 6.62561L53.3976 6.15031L50.5564 0.984375L47.7152 6.15031L40.4453 6.62561L45.966 10.3111L44.3078 15.7887L50.5564 12.8824Z" fill="#FF9017"/>
<path fill-rule="evenodd" clip-rule="evenodd" d="M30.3299 12.8824L36.5785 15.7887L34.9203 10.3111L40.441 6.62561L33.1711 6.15031L30.3299 0.984375L27.4886 6.15031L20.2188 6.62561L25.7394 10.3111L24.0812 15.7887L30.3299 12.8824Z" fill="#FF9017"/>
<path fill-rule="evenodd" clip-rule="evenodd" d="M10.1111 12.8824L16.3598 15.7887L14.7016 10.3111L20.2222 6.62561L12.9523 6.15031L10.1111 0.984375L7.26989 6.15031L0 6.62561L5.52067 10.3111L3.86244 15.7887L10.1111 12.8824Z" fill="#FF9017"/>
</svg>
