<svg width="94" height="16" viewBox="0 0 94 16" fill="none" xmlns="http://www.w3.org/2000/svg">
<path fill-rule="evenodd" clip-rule="evenodd" d="M84.3313 12.8824L90.1222 15.7887L88.5855 10.3111L93.7017 6.62561L86.9644 6.15031L84.3313 0.984375L81.6982 6.15031L74.9609 6.62561L80.0772 10.3111L78.5404 15.7887L84.3313 12.8824Z" fill="#D5CDC5"/>
<path fill-rule="evenodd" clip-rule="evenodd" d="M65.5891 12.8824L71.38 15.7887L69.8433 10.3111L74.9595 6.62561L68.2222 6.15031L65.5891 0.984375L62.956 6.15031L56.2188 6.62561L61.335 10.3111L59.7982 15.7887L65.5891 12.8824Z" fill="url(#paint0_linear_86_1526)"/>
<path fill-rule="evenodd" clip-rule="evenodd" d="M46.8547 12.8824L52.6456 15.7887L51.1089 10.3111L56.2251 6.62561L49.4878 6.15031L46.8547 0.984375L44.2217 6.15031L37.4844 6.62561L42.6006 10.3111L41.0639 15.7887L46.8547 12.8824Z" fill="#FF9017"/>
<path fill-rule="evenodd" clip-rule="evenodd" d="M28.1126 12.8824L33.9034 15.7887L32.3667 10.3111L37.4829 6.62561L30.7456 6.15031L28.1126 0.984375L25.4795 6.15031L18.7422 6.62561L23.8584 10.3111L22.3217 15.7887L28.1126 12.8824Z" fill="#FF9017"/>
<path fill-rule="evenodd" clip-rule="evenodd" d="M9.37037 12.8824L15.1613 15.7887L13.6245 10.3111L18.7407 6.62561L12.0034 6.15031L9.37037 0.984375L6.7373 6.15031L0 6.62561L5.11622 10.3111L3.57948 15.7887L9.37037 12.8824Z" fill="#FF9017"/>
<defs>
<linearGradient id="paint0_linear_86_1526" x1="74.9595" y1="8.38655" x2="56.2188" y2="8.38655" gradientUnits="userSpaceOnUse">
<stop stop-color="white"/>
<stop offset="0.89" stop-color="#DE6E2F"/>
</linearGradient>
</defs>
</svg>
