<svg width="113" height="32" viewBox="0 0 113 32" fill="none" xmlns="http://www.w3.org/2000/svg">
<path fill-rule="evenodd" clip-rule="evenodd" d="M101.303 25.6989L108.259 31.9038L106.413 20.2092L112.559 12.3408L104.466 11.326L101.303 0.296875L98.1398 11.326L90.0469 12.3408L96.1925 20.2092L94.3466 31.9038L101.303 25.6989Z" fill="#D5CDC5"/>
<path fill-rule="evenodd" clip-rule="evenodd" d="M78.7871 25.6989L85.7432 31.9038L83.8972 20.2092L90.0429 12.3408L81.9499 11.326L78.7871 0.296875L75.6242 11.326L67.5312 12.3408L73.6769 20.2092L71.831 31.9038L78.7871 25.6989Z" fill="#FF9017"/>
<path fill-rule="evenodd" clip-rule="evenodd" d="M56.2793 25.6989L63.2353 31.9038L61.3894 20.2092L67.5351 12.3408L59.4421 11.326L56.2793 0.296875L53.1164 11.326L45.0234 12.3408L51.1691 20.2092L49.3232 31.9038L56.2793 25.6989Z" fill="#FF9017"/>
<path fill-rule="evenodd" clip-rule="evenodd" d="M33.7636 25.6989L40.7197 31.9038L38.8738 20.2092L45.0194 12.3408L36.9265 11.326L33.7636 0.296875L30.6007 11.326L22.5078 12.3408L28.6535 20.2092L26.8075 31.9038L33.7636 25.6989Z" fill="#FF9017"/>
<path fill-rule="evenodd" clip-rule="evenodd" d="M11.2558 25.6989L18.2119 31.9038L16.366 20.2092L22.5116 12.3408L14.4187 11.326L11.2558 0.296875L8.09293 11.326L0 12.3408L6.14567 20.2092L4.29972 31.9038L11.2558 25.6989Z" fill="#FF9017"/>
</svg>
