<svg width="94" height="19" viewBox="0 0 94 19" fill="none" xmlns="http://www.w3.org/2000/svg">
<path fill-rule="evenodd" clip-rule="evenodd" d="M84.4094 14.9663L90.1568 18.5L88.6316 11.84L93.7094 7.35895L87.0227 6.78105L84.4094 0.5L81.7961 6.78105L75.1094 7.35895L80.1872 11.84L78.662 18.5L84.4094 14.9663Z" fill="#BDC4CD"/>
<path fill-rule="evenodd" clip-rule="evenodd" d="M65.8078 14.9663L71.5552 18.5L70.03 11.84L75.1078 7.35895L68.4211 6.78105L65.8078 0.5L63.1945 6.78105L56.5078 7.35895L61.5856 11.84L60.0604 18.5L65.8078 14.9663Z" fill="#BDC4CD"/>
<path fill-rule="evenodd" clip-rule="evenodd" d="M47.2141 14.9663L52.9615 18.5L51.4363 11.84L56.5141 7.35895L49.8274 6.78105L47.2141 0.5L44.6008 6.78105L37.9141 7.35895L42.9919 11.84L41.4667 18.5L47.2141 14.9663Z" fill="#FF9017"/>
<path fill-rule="evenodd" clip-rule="evenodd" d="M28.6125 14.9663L34.3599 18.5L32.8347 11.84L37.9125 7.35895L31.2258 6.78105L28.6125 0.5L25.9992 6.78105L19.3125 7.35895L24.3903 11.84L22.8651 18.5L28.6125 14.9663Z" fill="#FF9017"/>
<path fill-rule="evenodd" clip-rule="evenodd" d="M10.0109 14.9663L15.7583 18.5L14.2331 11.84L19.3109 7.35895L12.6242 6.78105L10.0109 0.5L7.39764 6.78105L0.710938 7.35895L5.78874 11.84L4.26354 18.5L10.0109 14.9663Z" fill="#FF9017"/>
</svg>
