<svg width="92" height="16" viewBox="0 0 92 16" fill="none" xmlns="http://www.w3.org/2000/svg">
<path fill-rule="evenodd" clip-rule="evenodd" d="M82.0017 12.8824L87.6324 15.7887L86.1382 10.3111L91.1128 6.62561L84.562 6.15031L82.0017 0.984375L79.4415 6.15031L72.8906 6.62561L77.8653 10.3111L76.3711 15.7887L82.0017 12.8824Z" fill="#D5CDC5"/>
<path fill-rule="evenodd" clip-rule="evenodd" d="M63.7752 12.8824L69.4058 15.7887L67.9116 10.3111L72.8863 6.62561L66.3354 6.15031L63.7752 0.984375L61.2149 6.15031L54.6641 6.62561L59.6387 10.3111L58.1445 15.7887L63.7752 12.8824Z" fill="#FF9017"/>
<path fill-rule="evenodd" clip-rule="evenodd" d="M45.5564 12.8824L51.1871 15.7887L49.6929 10.3111L54.6675 6.62561L48.1166 6.15031L45.5564 0.984375L42.9962 6.15031L36.4453 6.62561L41.42 10.3111L39.9258 15.7887L45.5564 12.8824Z" fill="#FF9017"/>
<path fill-rule="evenodd" clip-rule="evenodd" d="M27.3299 12.8824L32.9605 15.7887L31.4663 10.3111L36.441 6.62561L29.8901 6.15031L27.3299 0.984375L24.7696 6.15031L18.2188 6.62561L23.1934 10.3111L21.6992 15.7887L27.3299 12.8824Z" fill="#FF9017"/>
<path fill-rule="evenodd" clip-rule="evenodd" d="M9.11111 12.8824L14.7418 15.7887L13.2476 10.3111L18.2222 6.62561L11.6713 6.15031L9.11111 0.984375L6.55089 6.15031L0 6.62561L4.97467 10.3111L3.48044 15.7887L9.11111 12.8824Z" fill="#FF9017"/>
</svg>
