<svg width="94" height="19" viewBox="0 0 94 19" fill="none" xmlns="http://www.w3.org/2000/svg">
<path fill-rule="evenodd" clip-rule="evenodd" d="M84.05 15.2866L89.7974 18.8203L88.2722 12.1603L93.35 7.67926L86.6633 7.10137L84.05 0.820312L81.4367 7.10137L74.75 7.67926L79.8278 12.1603L78.3026 18.8203L84.05 15.2866Z" fill="#BDC4CD"/>
<path fill-rule="evenodd" clip-rule="evenodd" d="M65.4484 15.2866L71.1958 18.8203L69.6706 12.1603L74.7484 7.67926L68.0617 7.10137L65.4484 0.820312L62.8351 7.10137L56.1484 7.67926L61.2262 12.1603L59.701 18.8203L65.4484 15.2866Z" fill="#BDC4CD"/>
<path fill-rule="evenodd" clip-rule="evenodd" d="M46.8547 15.2866L52.6021 18.8203L51.0769 12.1603L56.1547 7.67926L49.468 7.10137L46.8547 0.820312L44.2414 7.10137L37.5547 7.67926L42.6325 12.1603L41.1073 18.8203L46.8547 15.2866Z" fill="#BDC4CD"/>
<path fill-rule="evenodd" clip-rule="evenodd" d="M28.2531 15.2866L34.0005 18.8203L32.4753 12.1603L37.5531 7.67926L30.8664 7.10137L28.2531 0.820312L25.6398 7.10137L18.9531 7.67926L24.0309 12.1603L22.5057 18.8203L28.2531 15.2866Z" fill="#FF9017"/>
<path fill-rule="evenodd" clip-rule="evenodd" d="M9.65156 15.2866L15.399 18.8203L13.8738 12.1603L18.9516 7.67926L12.2649 7.10137L9.65156 0.820312L7.03826 7.10137L0.351562 7.67926L5.42936 12.1603L3.90416 18.8203L9.65156 15.2866Z" fill="#FF9017"/>
</svg>
