<svg width="92" height="16" viewBox="0 0 92 16" fill="none" xmlns="http://www.w3.org/2000/svg">
<path fill-rule="evenodd" clip-rule="evenodd" d="M82.2042 12.8824L87.849 15.7887L86.351 10.3111L91.3381 6.62561L84.7708 6.15031L82.2042 0.984375L79.6376 6.15031L73.0703 6.62561L78.0574 10.3111L76.5595 15.7887L82.2042 12.8824Z" fill="#D5CDC5"/>
<path fill-rule="evenodd" clip-rule="evenodd" d="M63.9386 12.8824L69.5834 15.7887L68.0854 10.3111L73.0725 6.62561L66.5052 6.15031L63.9386 0.984375L61.372 6.15031L54.8047 6.62561L59.7918 10.3111L58.2938 15.7887L63.9386 12.8824Z" fill="url(#paint0_linear_84_1507)"/>
<path fill-rule="evenodd" clip-rule="evenodd" d="M45.673 12.8824L51.3177 15.7887L49.8198 10.3111L54.8069 6.62561L48.2396 6.15031L45.673 0.984375L43.1063 6.15031L36.5391 6.62561L41.5262 10.3111L40.0282 15.7887L45.673 12.8824Z" fill="#FF9017"/>
<path fill-rule="evenodd" clip-rule="evenodd" d="M27.3995 12.8824L33.0443 15.7887L31.5463 10.3111L36.5334 6.62561L29.9662 6.15031L27.3995 0.984375L24.8329 6.15031L18.2656 6.62561L23.2527 10.3111L21.7548 15.7887L27.3995 12.8824Z" fill="#FF9017"/>
<path fill-rule="evenodd" clip-rule="evenodd" d="M9.13391 12.8824L14.7787 15.7887L13.2807 10.3111L18.2678 6.62561L11.7005 6.15031L9.13391 0.984375L6.56728 6.15031L0 6.62561L4.98711 10.3111L3.48915 15.7887L9.13391 12.8824Z" fill="#FF9017"/>
<defs>
<linearGradient id="paint0_linear_84_1507" x1="73.0725" y1="8.38655" x2="54.8047" y2="8.38655" gradientUnits="userSpaceOnUse">
<stop stop-color="white"/>
<stop offset="0.89" stop-color="#DE6E2F"/>
</linearGradient>
</defs>
</svg>
