<svg width="94" height="19" viewBox="0 0 94 19" fill="none" xmlns="http://www.w3.org/2000/svg">
<path fill-rule="evenodd" clip-rule="evenodd" d="M84.05 14.7554L89.7974 18.2891L88.2722 11.6291L93.35 7.14801L86.6633 6.57012L84.05 0.289062L81.4367 6.57012L74.75 7.14801L79.8278 11.6291L78.3026 18.2891L84.05 14.7554Z" fill="#BDC4CD"/>
<path fill-rule="evenodd" clip-rule="evenodd" d="M65.4484 14.7554L71.1958 18.2891L69.6706 11.6291L74.7484 7.14801L68.0617 6.57012L65.4484 0.289062L62.8351 6.57012L56.1484 7.14801L61.2262 11.6291L59.701 18.2891L65.4484 14.7554Z" fill="#FF9017"/>
<path fill-rule="evenodd" clip-rule="evenodd" d="M46.8547 14.7554L52.6021 18.2891L51.0769 11.6291L56.1547 7.14801L49.468 6.57012L46.8547 0.289062L44.2414 6.57012L37.5547 7.14801L42.6325 11.6291L41.1073 18.2891L46.8547 14.7554Z" fill="#FF9017"/>
<path fill-rule="evenodd" clip-rule="evenodd" d="M28.2531 14.7554L34.0005 18.2891L32.4753 11.6291L37.5531 7.14801L30.8664 6.57012L28.2531 0.289062L25.6398 6.57012L18.9531 7.14801L24.0309 11.6291L22.5057 18.2891L28.2531 14.7554Z" fill="#FF9017"/>
<path fill-rule="evenodd" clip-rule="evenodd" d="M9.65156 14.7554L15.399 18.2891L13.8738 11.6291L18.9516 7.14801L12.2649 6.57012L9.65156 0.289062L7.03826 6.57012L0.351562 7.14801L5.42936 11.6291L3.90416 18.2891L9.65156 14.7554Z" fill="#FF9017"/>
</svg>
