<svg width="77" height="13" viewBox="0 0 77 13" fill="none" xmlns="http://www.w3.org/2000/svg">
<path fill-rule="evenodd" clip-rule="evenodd" d="M68.7306 10.1024L73.4502 12.5702L72.1978 7.9192L76.3675 4.78989L70.8766 4.38633L68.7306 0L66.5847 4.38633L61.0938 4.78989L65.2635 7.9192L64.011 12.5702L68.7306 10.1024Z" fill="#D5CDC5"/>
<path fill-rule="evenodd" clip-rule="evenodd" d="M53.4572 10.1024L58.1768 12.5702L56.9243 7.9192L61.0941 4.78989L55.6032 4.38633L53.4572 0L51.3112 4.38633L45.8203 4.78989L49.9901 7.9192L48.7376 12.5702L53.4572 10.1024Z" fill="#FF9017"/>
<path fill-rule="evenodd" clip-rule="evenodd" d="M38.1838 10.1024L42.9034 12.5702L41.6509 7.9192L45.8206 4.78989L40.3297 4.38633L38.1838 0L36.0378 4.38633L30.5469 4.78989L34.7166 7.9192L33.4642 12.5702L38.1838 10.1024Z" fill="#FF9017"/>
<path fill-rule="evenodd" clip-rule="evenodd" d="M22.9103 10.1024L27.6299 12.5702L26.3775 7.9192L30.5472 4.78989L25.0563 4.38633L22.9103 0L20.7644 4.38633L15.2734 4.78989L19.4432 7.9192L18.1907 12.5702L22.9103 10.1024Z" fill="#FF9017"/>
<path fill-rule="evenodd" clip-rule="evenodd" d="M7.63689 10.1024L12.3565 12.5702L11.104 7.9192L15.2738 4.78989L9.78285 4.38633L7.63689 0L5.49092 4.38633L0 4.78989L4.16974 7.9192L2.91729 12.5702L7.63689 10.1024Z" fill="#FF9017"/>
</svg>
