<svg width="83" height="16" viewBox="0 0 83 16" fill="none" xmlns="http://www.w3.org/2000/svg">
<path fill-rule="evenodd" clip-rule="evenodd" d="M74.0919 12.8824L79.1797 15.7887L77.8295 10.3111L82.3245 6.62561L76.4053 6.15031L74.0919 0.984375L71.7786 6.15031L65.8594 6.62561L70.3544 10.3111L69.0042 15.7887L74.0919 12.8824Z" fill="#D5CDC5"/>
<path fill-rule="evenodd" clip-rule="evenodd" d="M57.631 12.8824L62.7187 15.7887L61.3686 10.3111L65.8636 6.62561L59.9443 6.15031L57.631 0.984375L55.3176 6.15031L49.3984 6.62561L53.8934 10.3111L52.5433 15.7887L57.631 12.8824Z" fill="#D3C6BC"/>
<path fill-rule="evenodd" clip-rule="evenodd" d="M41.1622 12.8824L46.25 15.7887L44.8998 10.3111L49.3948 6.62561L43.4756 6.15031L41.1622 0.984375L38.8489 6.15031L32.9297 6.62561L37.4247 10.3111L36.0745 15.7887L41.1622 12.8824Z" fill="#FF9017"/>
<path fill-rule="evenodd" clip-rule="evenodd" d="M24.7013 12.8824L29.789 15.7887L28.4389 10.3111L32.9339 6.62561L27.0147 6.15031L24.7013 0.984375L22.388 6.15031L16.4688 6.62561L20.9637 10.3111L19.6136 15.7887L24.7013 12.8824Z" fill="#FF9017"/>
<path fill-rule="evenodd" clip-rule="evenodd" d="M8.23256 12.8824L13.3203 15.7887L11.9701 10.3111L16.4651 6.62561L10.5459 6.15031L8.23256 0.984375L5.91921 6.15031L0 6.62561L4.49498 10.3111L3.14484 15.7887L8.23256 12.8824Z" fill="#FF9017"/>
</svg>
