<svg width="79" height="16" viewBox="0 0 79 16" fill="none" xmlns="http://www.w3.org/2000/svg">
<path fill-rule="evenodd" clip-rule="evenodd" d="M70.5325 12.8824L75.3759 15.7887L74.0906 10.3111L78.3697 6.62561L72.7348 6.15031L70.5325 0.984375L68.3303 6.15031L62.6953 6.62561L66.9744 10.3111L65.6891 15.7887L70.5325 12.8824Z" fill="#D5CDC5"/>
<path fill-rule="evenodd" clip-rule="evenodd" d="M54.8606 12.8824L59.704 15.7887L58.4187 10.3111L62.6979 6.62561L57.0629 6.15031L54.8606 0.984375L52.6584 6.15031L47.0234 6.62561L51.3026 10.3111L50.0173 15.7887L54.8606 12.8824Z" fill="#FF9017"/>
<path fill-rule="evenodd" clip-rule="evenodd" d="M39.1888 12.8824L44.0322 15.7887L42.7469 10.3111L47.026 6.62561L41.391 6.15031L39.1888 0.984375L36.9865 6.15031L31.3516 6.62561L35.6307 10.3111L34.3454 15.7887L39.1888 12.8824Z" fill="#FF9017"/>
<path fill-rule="evenodd" clip-rule="evenodd" d="M23.5091 12.8824L28.3525 15.7887L27.0672 10.3111L31.3463 6.62561L25.7113 6.15031L23.5091 0.984375L21.3068 6.15031L15.6719 6.62561L19.951 10.3111L18.6657 15.7887L23.5091 12.8824Z" fill="#FF9017"/>
<path fill-rule="evenodd" clip-rule="evenodd" d="M7.83721 12.8824L12.6806 15.7887L11.3953 10.3111L15.6744 6.62561L10.0395 6.15031L7.83721 0.984375L5.63495 6.15031L0 6.62561L4.27912 10.3111L2.99381 15.7887L7.83721 12.8824Z" fill="#FF9017"/>
</svg>
