<svg width="94" height="19" viewBox="0 0 94 19" fill="none" xmlns="http://www.w3.org/2000/svg">
<path fill-rule="evenodd" clip-rule="evenodd" d="M84.05 14.9898L89.7974 18.5234L88.2722 11.8634L93.35 7.38238L86.6633 6.80449L84.05 0.523438L81.4367 6.80449L74.75 7.38238L79.8278 11.8634L78.3026 18.5234L84.05 14.9898Z" fill="#FF9017"/>
<path fill-rule="evenodd" clip-rule="evenodd" d="M65.4484 14.9898L71.1958 18.5234L69.6706 11.8634L74.7484 7.38238L68.0617 6.80449L65.4484 0.523438L62.8351 6.80449L56.1484 7.38238L61.2262 11.8634L59.701 18.5234L65.4484 14.9898Z" fill="#FF9017"/>
<path fill-rule="evenodd" clip-rule="evenodd" d="M46.8547 14.9898L52.6021 18.5234L51.0769 11.8634L56.1547 7.38238L49.468 6.80449L46.8547 0.523438L44.2414 6.80449L37.5547 7.38238L42.6325 11.8634L41.1073 18.5234L46.8547 14.9898Z" fill="#FF9017"/>
<path fill-rule="evenodd" clip-rule="evenodd" d="M28.2531 14.9898L34.0005 18.5234L32.4753 11.8634L37.5531 7.38238L30.8664 6.80449L28.2531 0.523438L25.6398 6.80449L18.9531 7.38238L24.0309 11.8634L22.5057 18.5234L28.2531 14.9898Z" fill="#FF9017"/>
<path fill-rule="evenodd" clip-rule="evenodd" d="M9.65156 14.9898L15.399 18.5234L13.8738 11.8634L18.9516 7.38238L12.2649 6.80449L9.65156 0.523438L7.03826 6.80449L0.351562 7.38238L5.42936 11.8634L3.90416 18.5234L9.65156 14.9898Z" fill="#FF9017"/>
</svg>
