<svg width="94" height="31" viewBox="0 0 94 31" fill="none" xmlns="http://www.w3.org/2000/svg">
<path d="M13.1702 0.96875C13.3078 2.55195 12.812 4.11207 12.0874 5.25882C11.3312 6.38773 10.1216 7.2512 8.94343 7.13999C8.78922 5.61659 9.38617 3.99666 10.0544 3.00834C10.8097 1.88678 12.1214 1.0275 13.1702 0.96875Z" fill="white"/>
<path d="M17.027 10.1017C16.8955 10.201 14.7166 11.8467 14.7405 15.2029C14.7687 19.2558 17.5428 20.5956 17.576 20.6093C17.5594 20.7037 17.1415 22.545 16.101 24.4104C15.2321 26.0555 14.3218 27.6639 12.8758 27.6912C12.1882 27.7117 11.7239 27.4617 11.2401 27.201C10.7357 26.9294 10.21 26.6462 9.38783 26.6462C8.51619 26.6462 7.9672 26.9387 7.43783 27.2208C6.97978 27.4648 6.53642 27.701 5.91143 27.7332C4.5343 27.7972 3.48218 25.9789 2.58178 24.3485C0.781814 21.0216 -0.619357 14.9731 1.25937 10.8572C2.16972 8.8386 3.82957 7.53867 5.60383 7.50405C6.38514 7.48384 7.1345 7.86486 7.79141 8.19889C8.29377 8.45432 8.74207 8.68227 9.10925 8.68227C9.43176 8.68227 9.86746 8.46344 10.3753 8.20838C11.1756 7.80643 12.155 7.31453 13.1527 7.44739C13.8351 7.47257 15.7768 7.78838 17.0296 10.0997L17.027 10.1017Z" fill="white"/>
<path fill-rule="evenodd" clip-rule="evenodd" d="M27.001 1.87235H25.0547V9.20015H27.001C28.7226 9.20015 29.7338 7.84428 29.7338 5.53371C29.7338 3.22822 28.7186 1.87235 27.001 1.87235ZM25.7771 2.69501V8.37749H26.9529C28.2651 8.37749 28.9955 7.36185 28.9955 5.54387C28.9955 3.71065 28.2691 2.69501 26.9529 2.69501H25.7771Z" fill="white"/>
<path fill-rule="evenodd" clip-rule="evenodd" d="M32.5239 9.29156C31.3682 9.29156 30.5897 8.24038 30.5897 6.5595C30.5897 4.87355 31.3682 3.82745 32.5239 3.82745C33.6756 3.82745 34.4542 4.87355 34.4542 6.5595C34.4542 8.24038 33.6756 9.29156 32.5239 9.29156ZM33.7439 6.5595C33.7439 7.80365 33.2623 8.5146 32.5239 8.5146C31.7855 8.5146 31.3 7.80365 31.3 6.5595C31.3 5.31535 31.7855 4.60441 32.5239 4.60441C33.2623 4.60441 33.7439 5.31535 33.7439 6.5595Z" fill="white"/>
<path d="M38.8655 9.20015H39.5758L40.7395 3.91885H40.0493L39.2146 8.21499H39.1985L38.2515 3.91885H37.5773L36.6343 8.21499H36.6182L35.7835 3.91885H35.0893L36.257 9.20015H36.9673L37.9064 5.11222H37.9224L38.8655 9.20015Z" fill="white"/>
<path d="M42.2414 3.91885H41.5833V9.20015H42.2816V6.09231C42.2816 5.19855 42.711 4.60948 43.3691 4.60948C44.0112 4.60948 44.3282 5.07668 44.3282 5.92981V9.20015H45.0264V5.77239C45.0264 4.57394 44.4967 3.82745 43.5818 3.82745C42.9357 3.82745 42.4902 4.19307 42.2575 4.76183H42.2414V3.91885Z" fill="white"/>
<path d="M46.2234 1.87235V9.20015H46.9216V1.87235H46.2234Z" fill="white"/>
<path fill-rule="evenodd" clip-rule="evenodd" d="M47.934 6.5595C47.934 8.24038 48.7125 9.29156 49.8682 9.29156C51.0199 9.29156 51.7984 8.24038 51.7984 6.5595C51.7984 4.87355 51.0199 3.82745 49.8682 3.82745C48.7125 3.82745 47.934 4.87355 47.934 6.5595ZM49.8682 8.5146C50.6066 8.5146 51.0881 7.80365 51.0881 6.5595C51.0881 5.31535 50.6066 4.60441 49.8682 4.60441C49.1298 4.60441 48.6443 5.31535 48.6443 6.5595C48.6443 7.80365 49.1298 8.5146 49.8682 8.5146Z" fill="white"/>
<path fill-rule="evenodd" clip-rule="evenodd" d="M53.9946 9.29156C53.1639 9.29156 52.6061 8.65679 52.6061 7.70717C52.6061 6.80325 53.1559 6.2345 54.119 6.1634L55.3149 6.07708V5.63527C55.3149 4.99035 54.9778 4.60441 54.3999 4.60441C53.8622 4.60441 53.5251 4.92433 53.4368 5.4423H52.7626C52.8108 4.52823 53.4288 3.82745 54.416 3.82745C55.3951 3.82745 56.0131 4.49776 56.0131 5.54895V9.20015H55.351V8.29116H55.3349C55.0861 8.89546 54.5564 9.29156 53.9946 9.29156ZM55.3149 7.19427C55.3149 7.956 54.8092 8.53999 54.1511 8.53999C53.6495 8.53999 53.3164 8.20991 53.3164 7.70717C53.3164 7.20951 53.6374 6.89466 54.1993 6.84896L55.3149 6.76263V7.19427Z" fill="white"/>
<path fill-rule="evenodd" clip-rule="evenodd" d="M56.9693 6.5595C56.9693 8.21499 57.6916 9.29156 58.755 9.29156C59.357 9.29156 59.8345 8.91577 60.1034 8.30639H60.1154V9.20015H60.7816V1.87235H60.0833V4.77706H60.0673C59.8185 4.19815 59.3369 3.82745 58.739 3.82745C57.6876 3.82745 56.9693 4.90402 56.9693 6.5595ZM58.8875 4.60441C58.1491 4.60441 57.6836 5.36613 57.6836 6.5595C57.6836 7.75795 58.1491 8.5146 58.8875 8.5146C59.6058 8.5146 60.0873 7.74272 60.0873 6.5595C60.0873 5.38137 59.6058 4.60441 58.8875 4.60441Z" fill="white"/>
<path fill-rule="evenodd" clip-rule="evenodd" d="M65.6876 9.29156C64.5318 9.29156 63.7533 8.24038 63.7533 6.5595C63.7533 4.87355 64.5318 3.82745 65.6876 3.82745C66.8393 3.82745 67.6178 4.87355 67.6178 6.5595C67.6178 8.24038 66.8393 9.29156 65.6876 9.29156ZM66.9075 6.5595C66.9075 7.80365 66.4259 8.5146 65.6876 8.5146C64.9492 8.5146 64.4636 7.80365 64.4636 6.5595C64.4636 5.31535 64.9492 4.60441 65.6876 4.60441C66.4259 4.60441 66.9075 5.31535 66.9075 6.5595Z" fill="white"/>
<path d="M69.2521 3.91885H68.594V9.20015H69.2923V6.09231C69.2923 5.19855 69.7217 4.60948 70.3798 4.60948C71.0219 4.60948 71.3389 5.07668 71.3389 5.92981V9.20015H72.0371V5.77239C72.0371 4.57394 71.5074 3.82745 70.5925 3.82745C69.9464 3.82745 69.5009 4.19307 69.2682 4.76183H69.2521V3.91885Z" fill="white"/>
<path d="M76.0803 2.64423H75.3821V3.91885H74.7601V4.64503H75.3821V7.82904C75.3821 8.84468 75.679 9.24078 76.4455 9.24078C76.61 9.24078 76.8027 9.22554 76.8869 9.20015V8.45874C76.8388 8.4689 76.6783 8.48413 76.598 8.48413C76.2409 8.48413 76.0803 8.26577 76.0803 7.78334V4.64503H76.8909V3.91885H76.0803V2.64423Z" fill="white"/>
<path d="M77.9434 1.87235V9.20015H78.6417V6.12278C78.6417 5.20871 79.0711 4.60948 79.7653 4.60948C80.4194 4.60948 80.7525 5.11222 80.7525 5.95012V9.20015H81.4507V5.78762C81.4507 4.60948 80.897 3.82745 79.982 3.82745C79.348 3.82745 78.8905 4.17276 78.6577 4.76183H78.6417V1.87235H77.9434Z" fill="white"/>
<path fill-rule="evenodd" clip-rule="evenodd" d="M86.0667 7.68686H85.3805C85.2641 8.18452 84.8749 8.52475 84.3452 8.52475C83.5947 8.52475 83.1252 7.85951 83.1252 6.84896V6.79818H86.1189V6.46302C86.1189 4.86339 85.4246 3.82745 84.297 3.82745C83.1453 3.82745 82.4069 4.93957 82.4069 6.57981C82.4069 8.24038 83.1332 9.29156 84.3291 9.29156C85.24 9.29156 85.9463 8.61108 86.0667 7.68686ZM84.285 4.59425C83.6309 4.59425 83.1734 5.22902 83.1292 6.10754H85.3966C85.3805 5.22394 84.9431 4.59425 84.285 4.59425Z" fill="white"/>
<path fill-rule="evenodd" clip-rule="evenodd" d="M31.8167 27.164L30.8055 23.383H26.5918L25.5806 27.164H23.7955L27.787 13.1745H29.641L33.6324 27.164H31.8167ZM27.0285 21.638L28.6757 15.5012H28.7216L30.3688 21.638H27.0285Z" fill="white"/>
<path fill-rule="evenodd" clip-rule="evenodd" d="M42.6171 22.0645C42.6171 18.8362 41.2687 16.8003 39.2232 16.8003C38.0587 16.8003 37.1317 17.5468 36.6567 18.7199H36.6261V16.9651H35.0249V30.5377H36.6797V25.4868H36.718C37.1777 26.6211 38.097 27.3385 39.2538 27.3385C41.2764 27.3385 42.6171 25.2929 42.6171 22.0645ZM38.7865 25.5643C40.0966 25.5643 40.9163 24.2071 40.9163 22.0645C40.9163 19.9317 40.0966 18.5648 38.7865 18.5648C37.5224 18.5648 36.672 19.9608 36.672 22.0645C36.672 24.1877 37.5148 25.5643 38.7865 25.5643Z" fill="white"/>
<path fill-rule="evenodd" clip-rule="evenodd" d="M48.4607 16.8003C50.5062 16.8003 51.8545 18.8362 51.8545 22.0645C51.8545 25.2929 50.5138 27.3385 48.4913 27.3385C47.3345 27.3385 46.4151 26.6211 45.9555 25.4868H45.9172V30.5377H44.2624V16.9651H45.8635V18.7199H45.8942C46.3692 17.5468 47.2962 16.8003 48.4607 16.8003ZM50.1538 22.0645C50.1538 24.2071 49.334 25.5643 48.024 25.5643C46.7522 25.5643 45.9095 24.1877 45.9095 22.0645C45.9095 19.9608 46.7599 18.5648 48.024 18.5648C49.334 18.5648 50.1538 19.9317 50.1538 22.0645Z" fill="white"/>
<path d="M58.4548 23.2667H56.7616C56.8689 25.797 58.5237 27.3966 60.9753 27.3966C63.5954 27.3966 65.2425 25.7582 65.2425 23.1407C65.2425 21.0951 64.3002 19.9414 62.0325 19.2628L60.8144 18.8847C59.3894 18.4387 58.8072 17.8571 58.8072 16.8682C58.8072 15.6273 59.7188 14.7741 61.0519 14.7741C62.3849 14.7741 63.2966 15.6176 63.3962 17.0136H65.0663C65.0127 14.5996 63.4115 12.9418 61.0749 12.9418C58.7152 12.9418 57.0528 14.5996 57.0528 17.0136C57.0528 18.9622 57.9951 20.1644 60.0253 20.7848L61.4579 21.2211C62.8905 21.6671 63.4958 22.3166 63.4958 23.4024C63.4958 24.653 62.4922 25.5643 61.0978 25.5643C59.6422 25.5643 58.5773 24.653 58.4548 23.2667Z" fill="white"/>
<path d="M69.1019 14.5512H67.4394V16.9651H66.2673V18.6229H67.4394V24.4785C67.4394 26.4465 68.0753 27.2318 69.7071 27.2318C70.0748 27.2318 70.4426 27.193 70.6264 27.1349V25.4771C70.5192 25.5062 70.251 25.5256 70.0825 25.5256C69.4083 25.5256 69.1019 25.1281 69.1019 24.2459V18.6229H70.6341V16.9651H69.1019V14.5512Z" fill="white"/>
<path fill-rule="evenodd" clip-rule="evenodd" d="M71.8121 22.0645C71.8121 25.351 73.329 27.3579 75.635 27.3579C77.941 27.3579 79.4579 25.351 79.4579 22.0645C79.4579 18.7877 77.9333 16.7809 75.635 16.7809C73.3366 16.7809 71.8121 18.7877 71.8121 22.0645ZM75.635 25.6322C76.9374 25.6322 77.7724 24.3331 77.7724 22.0645C77.7724 19.8057 76.9297 18.5066 75.635 18.5066C74.3402 18.5066 73.4975 19.8057 73.4975 22.0645C73.4975 24.3331 74.3402 25.6322 75.635 25.6322Z" fill="white"/>
<path d="M81.1108 16.9651H82.689V18.7005H82.7273C82.9955 17.508 83.7156 16.8003 84.6656 16.8003C84.9031 16.8003 85.1099 16.8488 85.2325 16.8779V18.8265C85.1023 18.7587 84.8111 18.7102 84.4894 18.7102C83.4245 18.7102 82.7656 19.6118 82.7656 21.0563V27.164H81.1108V16.9651Z" fill="white"/>
<path fill-rule="evenodd" clip-rule="evenodd" d="M91.9725 24.1755H93.543C93.3132 26.0369 91.9188 27.3651 90.0725 27.3651C87.7052 27.3651 86.2726 25.3389 86.2726 22.1203C86.2726 18.921 87.7282 16.7882 90.0036 16.7882C92.2406 16.7882 93.6349 18.7853 93.6349 21.8779V22.5953H87.9427V22.7213C87.9427 24.4955 88.7854 25.6685 90.1108 25.6685C91.0531 25.6685 91.7503 25.0675 91.9725 24.1755ZM87.9427 21.2519L91.9725 21.2036C91.9725 20.774 91.8303 19.9774 91.4965 19.555C91.1627 19.1325 90.6712 18.8118 90.0036 18.8118C88.6592 18.8118 87.9427 19.9484 87.9427 21.2519Z" fill="white"/>
</svg>
