<svg width="94" height="33" viewBox="0 0 94 33" fill="none" xmlns="http://www.w3.org/2000/svg">
<path d="M13.1702 0.0234375C13.3078 1.7658 12.812 3.48276 12.0874 4.74479C11.3312 5.98718 10.1216 6.93746 8.94343 6.81507C8.78922 5.13852 9.38617 3.35575 10.0544 2.26807C10.8097 1.03375 12.1214 0.0880977 13.1702 0.0234375Z" fill="white"/>
<path d="M17.027 10.0745C16.8955 10.1838 14.7166 11.9949 14.7405 15.6885C14.7687 20.1489 17.5428 21.6234 17.576 21.6384C17.5594 21.7423 17.1415 23.7687 16.101 25.8217C15.2321 27.6322 14.3218 29.4022 12.8758 29.4323C12.1882 29.4549 11.7239 29.1797 11.2401 28.8929C10.7357 28.5939 10.21 28.2822 9.38783 28.2822C8.51619 28.2822 7.9672 28.6041 7.43783 28.9145C6.97978 29.1831 6.53642 29.4431 5.91143 29.4785C4.5343 29.5489 3.48218 27.5479 2.58178 25.7536C0.781814 22.0922 -0.619357 15.4357 1.25937 10.906C2.16972 8.68444 3.82957 7.25383 5.60383 7.21573C6.38514 7.19348 7.1345 7.61281 7.79141 7.98042C8.29377 8.26153 8.74207 8.51239 9.10925 8.51239C9.43176 8.51239 9.86746 8.27156 10.3753 7.99087C11.1756 7.54851 12.155 7.00715 13.1527 7.15338C13.8351 7.18109 15.7768 7.52864 17.0296 10.0723L17.027 10.0745Z" fill="white"/>
<path fill-rule="evenodd" clip-rule="evenodd" d="M27.001 1.01787H25.0547V9.08234H27.001C28.7226 9.08234 29.7338 7.59016 29.7338 5.04731C29.7338 2.51005 28.7186 1.01787 27.001 1.01787ZM25.7771 1.92324V8.17697H26.9529C28.2651 8.17697 28.9955 7.05924 28.9955 5.05849C28.9955 3.04098 28.2691 1.92324 26.9529 1.92324H25.7771Z" fill="white"/>
<path fill-rule="evenodd" clip-rule="evenodd" d="M32.5239 9.18293C31.3682 9.18293 30.5897 8.02608 30.5897 6.17622C30.5897 4.32078 31.3682 3.16952 32.5239 3.16952C33.6756 3.16952 34.4542 4.32078 34.4542 6.17622C34.4542 8.02608 33.6756 9.18293 32.5239 9.18293ZM33.7439 6.17622C33.7439 7.54545 33.2623 8.32787 32.5239 8.32787C31.7855 8.32787 31.3 7.54545 31.3 6.17622C31.3 4.807 31.7855 4.02458 32.5239 4.02458C33.2623 4.02458 33.7439 4.807 33.7439 6.17622Z" fill="white"/>
<path d="M38.8655 9.08234H39.5758L40.7395 3.27011H40.0493L39.2146 7.99813H39.1985L38.2515 3.27011H37.5773L36.6343 7.99813H36.6182L35.7835 3.27011H35.0893L36.257 9.08234H36.9673L37.9064 4.58345H37.9224L38.8655 9.08234Z" fill="white"/>
<path d="M42.2414 3.27011H41.5833V9.08234H42.2816V5.66207C42.2816 4.67846 42.711 4.03017 43.3691 4.03017C44.0112 4.03017 44.3282 4.54433 44.3282 5.48323V9.08234H45.0264V5.30998C45.0264 3.99105 44.4967 3.16952 43.5818 3.16952C42.9357 3.16952 42.4902 3.5719 42.2575 4.19783H42.2414V3.27011Z" fill="white"/>
<path d="M46.2234 1.01787V9.08234H46.9216V1.01787H46.2234Z" fill="white"/>
<path fill-rule="evenodd" clip-rule="evenodd" d="M47.934 6.17622C47.934 8.02608 48.7125 9.18293 49.8682 9.18293C51.0199 9.18293 51.7984 8.02608 51.7984 6.17622C51.7984 4.32078 51.0199 3.16952 49.8682 3.16952C48.7125 3.16952 47.934 4.32078 47.934 6.17622ZM49.8682 8.32787C50.6066 8.32787 51.0881 7.54545 51.0881 6.17622C51.0881 4.807 50.6066 4.02458 49.8682 4.02458C49.1298 4.02458 48.6443 4.807 48.6443 6.17622C48.6443 7.54545 49.1298 8.32787 49.8682 8.32787Z" fill="white"/>
<path fill-rule="evenodd" clip-rule="evenodd" d="M53.9946 9.18293C53.1639 9.18293 52.6061 8.48435 52.6061 7.43927C52.6061 6.44448 53.1559 5.81855 54.119 5.74031L55.3149 5.6453V5.15909C55.3149 4.44932 54.9778 4.02458 54.3999 4.02458C53.8622 4.02458 53.5251 4.37667 53.4368 4.94672H52.7626C52.8108 3.94075 53.4288 3.16952 54.416 3.16952C55.3951 3.16952 56.0131 3.90722 56.0131 5.06408V9.08234H55.351V8.08196H55.3349C55.0861 8.74702 54.5564 9.18293 53.9946 9.18293ZM55.3149 6.87481C55.3149 7.71311 54.8092 8.35581 54.1511 8.35581C53.6495 8.35581 53.3164 7.99255 53.3164 7.43927C53.3164 6.89158 53.6374 6.54508 54.1993 6.49478L55.3149 6.39977V6.87481Z" fill="white"/>
<path fill-rule="evenodd" clip-rule="evenodd" d="M56.9693 6.17622C56.9693 7.99813 57.6916 9.18293 58.755 9.18293C59.357 9.18293 59.8345 8.76937 60.1034 8.09873H60.1154V9.08234H60.7816V1.01787H60.0833V4.2146H60.0673C59.8185 3.57749 59.3369 3.16952 58.739 3.16952C57.6876 3.16952 56.9693 4.35432 56.9693 6.17622ZM58.8875 4.02458C58.1491 4.02458 57.6836 4.86289 57.6836 6.17622C57.6836 7.49515 58.1491 8.32787 58.8875 8.32787C59.6058 8.32787 60.0873 7.47839 60.0873 6.17622C60.0873 4.87965 59.6058 4.02458 58.8875 4.02458Z" fill="white"/>
<path fill-rule="evenodd" clip-rule="evenodd" d="M65.6876 9.18293C64.5318 9.18293 63.7533 8.02608 63.7533 6.17622C63.7533 4.32078 64.5318 3.16952 65.6876 3.16952C66.8393 3.16952 67.6178 4.32078 67.6178 6.17622C67.6178 8.02608 66.8393 9.18293 65.6876 9.18293ZM66.9075 6.17622C66.9075 7.54545 66.4259 8.32787 65.6876 8.32787C64.9492 8.32787 64.4636 7.54545 64.4636 6.17622C64.4636 4.807 64.9492 4.02458 65.6876 4.02458C66.4259 4.02458 66.9075 4.807 66.9075 6.17622Z" fill="white"/>
<path d="M69.2521 3.27011H68.594V9.08234H69.2923V5.66207C69.2923 4.67846 69.7217 4.03017 70.3798 4.03017C71.0219 4.03017 71.3389 4.54433 71.3389 5.48323V9.08234H72.0371V5.30998C72.0371 3.99105 71.5074 3.16952 70.5925 3.16952C69.9464 3.16952 69.5009 3.5719 69.2682 4.19783H69.2521V3.27011Z" fill="white"/>
<path d="M76.0803 1.86735H75.3821V3.27011H74.7601V4.06929H75.3821V7.57339C75.3821 8.69113 75.679 9.12705 76.4455 9.12705C76.61 9.12705 76.8027 9.11028 76.8869 9.08234V8.26639C76.8388 8.27757 76.6783 8.29433 76.598 8.29433C76.2409 8.29433 76.0803 8.05402 76.0803 7.5231V4.06929H76.8909V3.27011H76.0803V1.86735Z" fill="white"/>
<path d="M77.9434 1.01787V9.08234H78.6417V5.6956C78.6417 4.68964 79.0711 4.03017 79.7653 4.03017C80.4194 4.03017 80.7525 4.58345 80.7525 5.50558V9.08234H81.4507V5.32675C81.4507 4.03017 80.897 3.16952 79.982 3.16952C79.348 3.16952 78.8905 3.54955 78.6577 4.19783H78.6417V1.01787H77.9434Z" fill="white"/>
<path fill-rule="evenodd" clip-rule="evenodd" d="M86.0667 7.41691H85.3805C85.2641 7.9646 84.8749 8.33904 84.3452 8.33904C83.5947 8.33904 83.1252 7.60693 83.1252 6.49478V6.43889H86.1189V6.07004C86.1189 4.30961 85.4246 3.16952 84.297 3.16952C83.1453 3.16952 82.4069 4.39344 82.4069 6.19858C82.4069 8.02608 83.1332 9.18293 84.3291 9.18293C85.24 9.18293 85.9463 8.43405 86.0667 7.41691ZM84.285 4.01341C83.6309 4.01341 83.1734 4.71199 83.1292 5.67883H85.3966C85.3805 4.7064 84.9431 4.01341 84.285 4.01341Z" fill="white"/>
<path fill-rule="evenodd" clip-rule="evenodd" d="M31.8167 28.852L30.8055 24.691H26.5918L25.5806 28.852H23.7955L27.787 13.4562H29.641L33.6324 28.852H31.8167ZM27.0285 22.7705L28.6757 16.0169H28.7216L30.3688 22.7705H27.0285Z" fill="white"/>
<path fill-rule="evenodd" clip-rule="evenodd" d="M42.6171 23.24C42.6171 19.6871 41.2687 17.4466 39.2232 17.4466C38.0587 17.4466 37.1317 18.2681 36.6567 19.5591H36.6261V17.6279H35.0249V32.5649H36.6797V27.0062H36.718C37.1777 28.2546 38.097 29.0441 39.2538 29.0441C41.2764 29.0441 42.6171 26.7929 42.6171 23.24ZM38.7865 27.0916C40.0966 27.0916 40.9163 25.5979 40.9163 23.24C40.9163 20.8927 40.0966 19.3884 38.7865 19.3884C37.5224 19.3884 36.672 20.9247 36.672 23.24C36.672 25.5766 37.5148 27.0916 38.7865 27.0916Z" fill="white"/>
<path fill-rule="evenodd" clip-rule="evenodd" d="M48.4607 17.4466C50.5062 17.4466 51.8545 19.6871 51.8545 23.24C51.8545 26.7929 50.5138 29.0441 48.4913 29.0441C47.3345 29.0441 46.4151 28.2546 45.9555 27.0062H45.9172V32.5649H44.2624V17.6279H45.8635V19.5591H45.8942C46.3692 18.2681 47.2962 17.4466 48.4607 17.4466ZM50.1538 23.24C50.1538 25.5979 49.334 27.0916 48.024 27.0916C46.7522 27.0916 45.9095 25.5766 45.9095 23.24C45.9095 20.9247 46.7599 19.3884 48.024 19.3884C49.334 19.3884 50.1538 20.8927 50.1538 23.24Z" fill="white"/>
<path d="M58.4548 24.563H56.7616C56.8689 27.3477 58.5237 29.1081 60.9753 29.1081C63.5954 29.1081 65.2425 27.305 65.2425 24.4243C65.2425 22.1731 64.3002 20.9034 62.0325 20.1566L60.8144 19.7405C59.3894 19.2497 58.8072 18.6095 58.8072 17.5212C58.8072 16.1556 59.7188 15.2167 61.0519 15.2167C62.3849 15.2167 63.2966 16.1449 63.3962 17.6813H65.0663C65.0127 15.0246 63.4115 13.2002 61.0749 13.2002C58.7152 13.2002 57.0528 15.0246 57.0528 17.6813C57.0528 19.8258 57.9951 21.1488 60.0253 21.8316L61.4579 22.3118C62.8905 22.8025 63.4958 23.5174 63.4958 24.7123C63.4958 26.0887 62.4922 27.0916 61.0978 27.0916C59.6422 27.0916 58.5773 26.0887 58.4548 24.563Z" fill="white"/>
<path d="M69.1019 14.9713H67.4394V17.6279H66.2673V19.4524H67.4394V25.8966C67.4394 28.0625 68.0753 28.9267 69.7071 28.9267C70.0748 28.9267 70.4426 28.884 70.6264 28.82V26.9956C70.5192 27.0276 70.251 27.0489 70.0825 27.0489C69.4083 27.0489 69.1019 26.6115 69.1019 25.6406V19.4524H70.6341V17.6279H69.1019V14.9713Z" fill="white"/>
<path fill-rule="evenodd" clip-rule="evenodd" d="M71.8121 23.24C71.8121 26.8569 73.329 29.0654 75.635 29.0654C77.941 29.0654 79.4579 26.8569 79.4579 23.24C79.4579 19.6338 77.9333 17.4252 75.635 17.4252C73.3366 17.4252 71.8121 19.6338 71.8121 23.24ZM75.635 27.1663C76.9374 27.1663 77.7724 25.7366 77.7724 23.24C77.7724 20.754 76.9297 19.3244 75.635 19.3244C74.3402 19.3244 73.4975 20.754 73.4975 23.24C73.4975 25.7366 74.3402 27.1663 75.635 27.1663Z" fill="white"/>
<path d="M81.1108 17.6279H82.689V19.5377H82.7273C82.9955 18.2254 83.7156 17.4466 84.6656 17.4466C84.9031 17.4466 85.1099 17.4999 85.2325 17.5319V19.6764C85.1023 19.6018 84.8111 19.5484 84.4894 19.5484C83.4245 19.5484 82.7656 20.5407 82.7656 22.1304V28.852H81.1108V17.6279Z" fill="white"/>
<path fill-rule="evenodd" clip-rule="evenodd" d="M91.9725 25.5632H93.543C93.3132 27.6117 91.9188 29.0734 90.0725 29.0734C87.7052 29.0734 86.2726 26.8435 86.2726 23.3013C86.2726 19.7804 87.7282 17.4332 90.0036 17.4332C92.2406 17.4332 93.6349 19.6311 93.6349 23.0346V23.8241H87.9427V23.9628C87.9427 25.9153 88.7854 27.2063 90.1108 27.2063C91.0531 27.2063 91.7503 26.5448 91.9725 25.5632ZM87.9427 22.3456L91.9725 22.2925C91.9725 21.8197 91.8303 20.943 91.4965 20.4781C91.1627 20.0132 90.6712 19.6603 90.0036 19.6603C88.6592 19.6603 87.9427 20.9111 87.9427 22.3456Z" fill="white"/>
</svg>
