<svg width="102" height="26" viewBox="0 0 102 26" fill="none" xmlns="http://www.w3.org/2000/svg">
<path d="M14.7115 0.640625C14.8604 1.9809 14.324 3.30164 13.5399 4.27243C12.7219 5.22812 11.4131 5.9591 10.1384 5.86495C9.97154 4.5753 10.6174 3.20394 11.3404 2.36726C12.1576 1.41779 13.5767 0.690364 14.7115 0.640625Z" fill="white"/>
<path d="M18.8843 8.37221C18.7421 8.45628 16.3846 9.84946 16.4105 12.6907C16.441 16.1218 19.4424 17.256 19.4783 17.2675C19.4604 17.3475 19.0083 18.9062 17.8825 20.4854C16.9424 21.8781 15.9575 23.2397 14.393 23.2628C13.649 23.2802 13.1467 23.0685 12.6232 22.8479C12.0775 22.6179 11.5088 22.3782 10.6192 22.3782C9.67614 22.3782 9.08216 22.6258 8.50942 22.8645C8.01383 23.0712 7.53414 23.2711 6.85793 23.2983C5.36796 23.3525 4.22962 21.8133 3.25544 20.433C1.30798 17.6166 -0.208011 12.4962 1.82467 9.0118C2.80961 7.30293 4.60548 6.20246 6.52513 6.17315C7.37046 6.15604 8.18123 6.4786 8.89197 6.76138C9.43549 6.97762 9.92053 7.17059 10.3178 7.17059C10.6667 7.17059 11.1381 6.98533 11.6876 6.76942C12.5535 6.42914 13.6131 6.01271 14.6926 6.12519C15.4309 6.14651 17.5318 6.41385 18.8872 8.37053L18.8843 8.37221Z" fill="white"/>
<path fill-rule="evenodd" clip-rule="evenodd" d="M29.6757 1.40558H27.5699V7.60901H29.6757C31.5383 7.60901 32.6325 6.46118 32.6325 4.50514C32.6325 2.5534 31.534 1.40558 29.6757 1.40558ZM28.3514 2.10201V6.91257H29.6236C31.0434 6.91257 31.8336 6.05278 31.8336 4.51374C31.8336 2.96181 31.0477 2.10201 29.6236 2.10201H28.3514Z" fill="white"/>
<path fill-rule="evenodd" clip-rule="evenodd" d="M35.6512 7.68639C34.4007 7.68639 33.5584 6.7965 33.5584 5.37354C33.5584 3.94627 34.4007 3.06068 35.6512 3.06068C36.8973 3.06068 37.7396 3.94627 37.7396 5.37354C37.7396 6.7965 36.8973 7.68639 35.6512 7.68639ZM36.9711 5.37354C36.9711 6.42679 36.4501 7.02864 35.6512 7.02864C34.8523 7.02864 34.3269 6.42679 34.3269 5.37354C34.3269 4.32029 34.8523 3.71843 35.6512 3.71843C36.4501 3.71843 36.9711 4.32029 36.9711 5.37354Z" fill="white"/>
<path d="M42.5124 7.60901H43.2809L44.54 3.13807H43.7932L42.8901 6.775H42.8727L41.8481 3.13807H41.1186L40.0983 6.775H40.081L39.1779 3.13807H38.4267L39.6902 7.60901H40.4587L41.4747 4.14833H41.492L42.5124 7.60901Z" fill="white"/>
<path d="M46.165 3.13807H45.4529V7.60901H46.2084V4.97803C46.2084 4.22141 46.673 3.72273 47.385 3.72273C48.0797 3.72273 48.4227 4.11823 48.4227 4.84046V7.60901H49.1782V4.70719C49.1782 3.69263 48.6051 3.06068 47.6151 3.06068C46.9161 3.06068 46.4342 3.37021 46.1823 3.8517H46.165V3.13807Z" fill="white"/>
<path d="M50.4732 1.40558V7.60901H51.2287V1.40558H50.4732Z" fill="white"/>
<path fill-rule="evenodd" clip-rule="evenodd" d="M52.324 5.37354C52.324 6.7965 53.1663 7.68639 54.4167 7.68639C55.6628 7.68639 56.5051 6.7965 56.5051 5.37354C56.5051 3.94627 55.6628 3.06068 54.4167 3.06068C53.1663 3.06068 52.324 3.94627 52.324 5.37354ZM54.4167 7.02864C55.2156 7.02864 55.7366 6.42679 55.7366 5.37354C55.7366 4.32029 55.2156 3.71843 54.4167 3.71843C53.6178 3.71843 53.0925 4.32029 53.0925 5.37354C53.0925 6.42679 53.6178 7.02864 54.4167 7.02864Z" fill="white"/>
<path fill-rule="evenodd" clip-rule="evenodd" d="M58.8812 7.68639C57.9825 7.68639 57.379 7.14902 57.379 6.34511C57.379 5.57989 57.9738 5.0984 59.0158 5.03822L60.3097 4.96513V4.59112C60.3097 4.04515 59.945 3.71843 59.3198 3.71843C58.738 3.71843 58.3732 3.98926 58.2777 4.42776H57.5483C57.6004 3.65394 58.269 3.06068 59.3371 3.06068C60.3965 3.06068 61.0652 3.62815 61.0652 4.51804V7.60901H60.3488V6.83949H60.3314C60.0622 7.35107 59.4891 7.68639 58.8812 7.68639ZM60.3097 5.91091C60.3097 6.55576 59.7626 7.05014 59.0506 7.05014C58.5078 7.05014 58.1475 6.77071 58.1475 6.34511C58.1475 5.92381 58.4948 5.65727 59.1027 5.61858L60.3097 5.5455V5.91091Z" fill="white"/>
<path fill-rule="evenodd" clip-rule="evenodd" d="M62.0997 5.37354C62.0997 6.775 62.8812 7.68639 64.0318 7.68639C64.683 7.68639 65.1997 7.36826 65.4906 6.85239H65.5036V7.60901H66.2244V1.40558H65.4689V3.86459H65.4515C65.1823 3.37451 64.6613 3.06068 64.0144 3.06068C62.8768 3.06068 62.0997 3.97207 62.0997 5.37354ZM64.175 3.71843C63.3762 3.71843 62.8725 4.36328 62.8725 5.37354C62.8725 6.3881 63.3762 7.02864 64.175 7.02864C64.9522 7.02864 65.4732 6.3752 65.4732 5.37354C65.4732 4.37617 64.9522 3.71843 64.175 3.71843Z" fill="white"/>
<path fill-rule="evenodd" clip-rule="evenodd" d="M71.5324 7.68639C70.2819 7.68639 69.4396 6.7965 69.4396 5.37354C69.4396 3.94627 70.2819 3.06068 71.5324 3.06068C72.7785 3.06068 73.6208 3.94627 73.6208 5.37354C73.6208 6.7965 72.7785 7.68639 71.5324 7.68639ZM72.8523 5.37354C72.8523 6.42679 72.3313 7.02864 71.5324 7.02864C70.7335 7.02864 70.2081 6.42679 70.2081 5.37354C70.2081 4.32029 70.7335 3.71843 71.5324 3.71843C72.3313 3.71843 72.8523 4.32029 72.8523 5.37354Z" fill="white"/>
<path d="M75.389 3.13807H74.677V7.60901H75.4325V4.97803C75.4325 4.22141 75.897 3.72273 76.6091 3.72273C77.3038 3.72273 77.6468 4.11823 77.6468 4.84046V7.60901H78.4022V4.70719C78.4022 3.69263 77.8291 3.06068 76.8392 3.06068C76.1402 3.06068 75.6582 3.37021 75.4064 3.8517H75.389V3.13807Z" fill="white"/>
<path d="M82.7768 2.05902H82.0213V3.13807H81.3483V3.75282H82.0213V6.44828C82.0213 7.30808 82.3426 7.6434 83.1719 7.6434C83.3499 7.6434 83.5583 7.6305 83.6495 7.60901V6.98136C83.5974 6.98995 83.4237 7.00285 83.3368 7.00285C82.9504 7.00285 82.7768 6.81799 82.7768 6.40959V3.75282H83.6538V3.13807H82.7768V2.05902Z" fill="white"/>
<path d="M84.7925 1.40558V7.60901H85.548V5.00382C85.548 4.23001 86.0126 3.72273 86.7637 3.72273C87.4714 3.72273 87.8318 4.14833 87.8318 4.85766V7.60901H88.5872V4.72009C88.5872 3.72273 87.9881 3.06068 86.9981 3.06068C86.3121 3.06068 85.8172 3.35301 85.5653 3.8517H85.548V1.40558H84.7925Z" fill="white"/>
<path fill-rule="evenodd" clip-rule="evenodd" d="M93.5815 6.32791H92.839C92.7131 6.74921 92.2919 7.03724 91.7188 7.03724C90.9069 7.03724 90.3989 6.47408 90.3989 5.61858V5.57559H93.6379V5.29186C93.6379 3.93768 92.8868 3.06068 91.6667 3.06068C90.4206 3.06068 89.6217 4.00216 89.6217 5.39073C89.6217 6.7965 90.4076 7.68639 91.7015 7.68639C92.6871 7.68639 93.4512 7.11033 93.5815 6.32791ZM91.6537 3.70983C90.946 3.70983 90.451 4.2472 90.4033 4.99093H92.8564C92.839 4.2429 92.3658 3.70983 91.6537 3.70983Z" fill="white"/>
<path fill-rule="evenodd" clip-rule="evenodd" d="M34.886 22.8165L33.7919 19.6157H29.233L28.1388 22.8165H26.2075L30.5261 10.9735H32.532L36.8505 22.8165H34.886ZM29.7055 18.1384L31.4876 12.9433H31.5373L33.3194 18.1384H29.7055Z" fill="white"/>
<path fill-rule="evenodd" clip-rule="evenodd" d="M46.5714 18.4995C46.5714 15.7665 45.1125 14.043 42.8994 14.043C41.6395 14.043 40.6365 14.675 40.1226 15.668H40.0895V14.1825H38.3571V25.6725H40.1475V21.3966H40.1889C40.6863 22.3569 41.6809 22.9642 42.9325 22.9642C45.1208 22.9642 46.5714 21.2325 46.5714 18.4995ZM42.4269 21.4623C43.8443 21.4623 44.7312 20.3133 44.7312 18.4995C44.7312 16.6939 43.8443 15.5367 42.4269 15.5367C41.0593 15.5367 40.1392 16.7185 40.1392 18.4995C40.1392 20.2969 41.051 21.4623 42.4269 21.4623Z" fill="white"/>
<path fill-rule="evenodd" clip-rule="evenodd" d="M52.8938 14.043C55.1069 14.043 56.5658 15.7665 56.5658 18.4995C56.5658 21.2325 55.1152 22.9642 52.927 22.9642C51.6753 22.9642 50.6807 22.3569 50.1833 21.3966H50.1419V25.6725H48.3515V14.1825H50.0839V15.668H50.117C50.6309 14.675 51.6339 14.043 52.8938 14.043ZM54.7257 18.4995C54.7257 20.3133 53.8387 21.4623 52.4213 21.4623C51.0454 21.4623 50.1336 20.2969 50.1336 18.4995C50.1336 16.7185 51.0537 15.5367 52.4213 15.5367C53.8387 15.5367 54.7257 16.6939 54.7257 18.4995Z" fill="white"/>
<path d="M63.7069 19.5172H61.875C61.9911 21.6593 63.7815 23.0134 66.4339 23.0134C69.2687 23.0134 71.0508 21.6264 71.0508 19.4105C71.0508 17.6788 70.0313 16.7021 67.5778 16.1276L66.2598 15.8076C64.7181 15.43 64.0882 14.9376 64.0882 14.1005C64.0882 13.05 65.0745 12.3277 66.5168 12.3277C67.9591 12.3277 68.9454 13.0417 69.0532 14.2236H70.8602C70.8022 12.18 69.0698 10.7766 66.5417 10.7766C63.9887 10.7766 62.19 12.18 62.19 14.2236C62.19 15.8732 63.2095 16.8909 65.4061 17.4162L66.9561 17.7855C68.5061 18.163 69.161 18.7129 69.161 19.6321C69.161 20.6908 68.0751 21.4623 66.5665 21.4623C64.9916 21.4623 63.8395 20.6908 63.7069 19.5172Z" fill="white"/>
<path d="M75.2264 12.139H73.4278V14.1825H72.1596V15.586H73.4278V20.5431C73.4278 22.2091 74.1157 22.8739 75.8813 22.8739C76.2791 22.8739 76.677 22.8411 76.8759 22.7918V21.3884C76.7599 21.413 76.4698 21.4295 76.2874 21.4295C75.558 21.4295 75.2264 21.093 75.2264 20.3461V15.586H76.8842V14.1825H75.2264V12.139Z" fill="white"/>
<path fill-rule="evenodd" clip-rule="evenodd" d="M78.1587 18.4995C78.1587 21.2817 79.7999 22.9806 82.2949 22.9806C84.7898 22.9806 86.431 21.2817 86.431 18.4995C86.431 15.7255 84.7816 14.0266 82.2949 14.0266C79.8082 14.0266 78.1587 15.7255 78.1587 18.4995ZM82.2949 21.5197C83.704 21.5197 84.6075 20.42 84.6075 18.4995C84.6075 16.5872 83.6957 15.4875 82.2949 15.4875C80.8941 15.4875 79.9823 16.5872 79.9823 18.4995C79.9823 20.42 80.8941 21.5197 82.2949 21.5197Z" fill="white"/>
<path d="M88.2195 14.1825H89.927V15.6516H89.9684C90.2585 14.6421 91.0377 14.043 92.0655 14.043C92.3225 14.043 92.5463 14.0841 92.6789 14.1087V15.7583C92.538 15.7009 92.223 15.6598 91.8749 15.6598C90.7227 15.6598 90.0099 16.4231 90.0099 17.646V22.8165H88.2195V14.1825Z" fill="white"/>
<path fill-rule="evenodd" clip-rule="evenodd" d="M99.9711 20.2866H101.67C101.422 21.8624 99.9131 22.9867 97.9155 22.9867C95.3542 22.9867 93.8042 21.2714 93.8042 18.5467C93.8042 15.8383 95.3791 14.0327 97.8409 14.0327C100.261 14.0327 101.77 15.7234 101.77 18.3415V18.9488H95.6112V19.0555C95.6112 20.5574 96.523 21.5505 97.9569 21.5505C98.9765 21.5505 99.7308 21.0416 99.9711 20.2866ZM95.6112 17.8115L99.9711 17.7707C99.9711 17.4069 99.8173 16.7326 99.4562 16.375C99.095 16.0174 98.5632 15.7459 97.8409 15.7459C96.3864 15.7459 95.6112 16.7081 95.6112 17.8115Z" fill="white"/>
</svg>
