<svg width="29" height="29" viewBox="0 0 29 29" fill="none" xmlns="http://www.w3.org/2000/svg">
<path fill-rule="evenodd" clip-rule="evenodd" d="M8.60057 22.7445C7.05409 22.7445 5.80284 23.9946 5.80284 25.5226C5.80284 27.0505 7.05409 28.3007 8.60057 28.3007C10.147 28.3007 11.4124 27.0505 11.4124 25.5226C11.4124 23.9946 10.147 22.7445 8.60057 22.7445ZM0.164062 1.91249C0.164062 2.67646 0.796708 3.30153 1.56994 3.30153H2.97582L8.03699 13.8444L6.13905 17.2337C5.11276 19.095 6.4624 21.3592 8.59934 21.3592H24.064C24.8373 21.3592 25.4699 20.7341 25.4699 19.9701C25.4699 19.2061 24.8373 18.5811 24.064 18.5811H8.59934L10.1458 15.803H20.6196C21.674 15.803 22.6019 15.2335 23.0799 14.3723L28.113 5.35733C28.6331 4.44055 27.9583 3.30153 26.8898 3.30153H6.08282L5.14088 1.3152C4.91594 0.829028 4.40982 0.523438 3.87559 0.523438H1.56994C0.796708 0.523438 0.164062 1.14851 0.164062 1.91249ZM22.6577 22.7445C21.1112 22.7445 19.8599 23.9946 19.8599 25.5226C19.8599 27.0505 21.1112 28.3007 22.6577 28.3007C24.2041 28.3007 25.4694 27.0505 25.4694 25.5226C25.4694 23.9946 24.2041 22.7445 22.6577 22.7445Z" fill="#761072"/>
</svg>
