<svg width="28" height="28" viewBox="0 0 28 28" fill="none" xmlns="http://www.w3.org/2000/svg">
<path fill-rule="evenodd" clip-rule="evenodd" d="M24.5779 0.84375H3.15448C1.68163 0.84375 0.489952 2.03438 0.489952 3.4896L0.476562 27.3023L5.8324 22.0106H24.5779C26.0507 22.0106 27.2558 20.8199 27.2558 19.3647V3.4896C27.2558 2.03438 26.0507 0.84375 24.5779 0.84375ZM7.17535 10.1042H20.5649C21.3014 10.1042 21.9039 10.6996 21.9039 11.4272C21.9039 12.1548 21.3014 12.7501 20.5649 12.7501H7.17535C6.43892 12.7501 5.83639 12.1548 5.83639 11.4272C5.83639 10.6996 6.43892 10.1042 7.17535 10.1042ZM15.2091 16.7189H7.17535C6.43892 16.7189 5.83639 16.1236 5.83639 15.3959C5.83639 14.6683 6.43892 14.073 7.17535 14.073H15.2091C15.9456 14.073 16.5481 14.6683 16.5481 15.3959C16.5481 16.1236 15.9456 16.7189 15.2091 16.7189ZM20.5649 8.78131H7.17535C6.43892 8.78131 5.83639 8.18599 5.83639 7.45838C5.83639 6.73077 6.43892 6.13546 7.17535 6.13546H20.5649C21.3014 6.13546 21.9039 6.73077 21.9039 7.45838C21.9039 8.18599 21.3014 8.78131 20.5649 8.78131Z" fill="#761072"/>
</svg>
